<?xml version="1.0" standalone="no"?>
<!DOCTYPE svg PUBLIC "-//W3C//DTD SVG 20010904//EN"
 "http://www.w3.org/TR/2001/REC-SVG-20010904/DTD/svg10.dtd">
<svg version="1.0" xmlns="http://www.w3.org/2000/svg"
 width="898.000000pt" height="898.000000pt" viewBox="0 0 898.000000 898.000000"
 preserveAspectRatio="xMidYMid meet">
<metadata>
Created by potrace 1.14, written by Peter Selinger 2001-2017
</metadata>
<g transform="translate(0.000000,898.000000) scale(0.100000,-0.100000)"
fill="#000000" stroke="none">
<path d="M4431 8679 c-42 -9 -73 -31 -113 -81 -44 -55 -98 -141 -98 -156 0 -7
-4 -12 -8 -12 -5 0 -15 -18 -22 -40 -7 -22 -16 -40 -19 -40 -4 0 -7 -9 -8 -20
-1 -12 -25 -46 -52 -76 -28 -31 -49 -60 -45 -65 3 -5 1 -9 -5 -9 -5 0 -12 -19
-16 -42 -4 -24 -10 -45 -14 -48 -16 -13 -80 -138 -86 -170 -2 -8 -4 -17 -5
-20 -1 -3 -2 -8 -1 -12 0 -5 -3 -8 -8 -8 -5 0 -8 -8 -6 -17 1 -10 0 -22 -4
-28 -3 -5 -7 -42 -7 -81 -1 -49 -7 -80 -19 -98 -10 -14 -13 -26 -9 -26 5 0 4
-4 -2 -8 -21 -13 -41 -105 -39 -172 1 -36 -2 -72 -6 -81 -9 -17 -21 -68 -20
-84 5 -107 10 -196 14 -220 3 -16 -1 -45 -8 -65 -7 -20 -12 -51 -10 -68 1 -18
-2 -32 -8 -32 -6 0 -8 -3 -4 -6 3 -3 -3 -22 -13 -42 -11 -21 -16 -40 -11 -46
16 -20 -6 -76 -30 -76 -8 0 -73 -40 -96 -60 -7 -5 -16 -10 -21 -10 -4 0 -18
-9 -30 -20 -12 -12 -22 -18 -22 -15 0 8 -57 -31 -91 -62 l-26 -24 -37 72 c-21
40 -55 98 -77 130 -22 33 -38 59 -35 59 26 0 -276 294 -318 309 -6 2 -13 7
-16 11 -3 3 -23 17 -45 30 -22 13 -43 28 -46 33 -3 4 -12 9 -20 11 -8 1 -30
11 -49 21 -59 32 -212 95 -232 95 -10 0 -18 4 -18 9 0 4 -15 11 -32 14 -18 4
-72 17 -119 30 -47 13 -95 23 -107 22 -12 -1 -22 1 -22 5 0 3 -8 6 -17 6 -17
1 -62 7 -153 19 -139 20 -545 21 -635 2 -11 -3 -41 -7 -66 -11 -189 -28 -262
-64 -264 -134 -2 -35 -4 -37 -46 -45 -24 -4 -50 -10 -57 -12 -7 -3 -14 -5 -17
-5 -3 0 -24 -8 -47 -16 -24 -9 -52 -17 -63 -20 -11 -2 -29 -8 -40 -13 -11 -5
-54 -26 -95 -45 -41 -20 -88 -44 -105 -54 -58 -33 -110 -66 -115 -72 -3 -3
-21 -17 -40 -30 -19 -13 -37 -27 -40 -30 -3 -3 -32 -28 -65 -55 -33 -28 -85
-77 -115 -110 -30 -33 -57 -62 -60 -65 -46 -46 -170 -233 -184 -277 -4 -13
-12 -23 -17 -23 -5 0 -8 -3 -7 -7 1 -5 -5 -30 -14 -58 -19 -63 -17 -92 10
-120 20 -21 72 -28 88 -12 10 9 34 9 33 0 -3 -20 3 -29 32 -42 39 -17 113 -9
166 17 25 13 56 19 90 18 29 0 53 2 53 5 0 3 6 6 13 6 6 0 32 3 57 8 25 4 64
8 87 9 23 2 65 15 95 30 42 21 59 25 83 18 17 -5 39 -8 50 -6 10 2 24 -1 30
-5 21 -17 64 -20 96 -9 39 13 116 81 125 110 5 18 8 18 35 -10 27 -28 32 -29
70 -21 23 5 48 16 56 25 13 13 18 12 39 -11 12 -14 29 -25 36 -26 36 -3 73 4
85 17 8 7 27 21 43 31 17 9 30 21 30 25 0 4 11 -4 25 -17 34 -30 66 -25 163
27 68 36 76 38 85 23 37 -67 108 -69 216 -8 84 48 81 47 81 30 0 -60 131 -53
199 12 12 11 17 9 34 -13 16 -23 26 -26 64 -25 24 2 46 7 49 11 3 5 10 6 15 3
5 -4 9 -1 9 4 0 20 30 11 61 -19 18 -16 35 -28 38 -25 4 2 18 6 32 9 13 3 35
8 48 12 19 6 23 4 19 -8 -14 -35 73 -67 128 -47 17 6 24 3 32 -15 9 -21 72
-54 72 -39 0 11 29 -31 30 -43 0 -6 -19 -24 -42 -41 -103 -75 -369 -333 -342
-333 2 0 -3 -15 -13 -32 -9 -18 -16 -36 -15 -40 1 -5 -3 -8 -8 -8 -6 0 -10
-17 -10 -38 0 -32 -6 -43 -45 -75 -45 -38 -135 -155 -135 -176 0 -6 -4 -11 -9
-11 -8 0 -71 -128 -75 -153 -1 -7 -5 -18 -9 -24 -5 -7 -6 -17 -3 -21 3 -5 -13
-33 -36 -63 -44 -59 -127 -231 -130 -269 0 -3 -2 -9 -4 -15 -8 -27 -28 -102
-30 -115 -1 -8 -5 -33 -9 -55 -12 -61 -12 -87 -4 -118 6 -20 2 -40 -16 -75
-39 -75 -50 -146 -48 -312 0 -114 6 -191 17 -245 3 -11 5 -25 5 -31 1 -6 13
-23 27 -37 18 -19 24 -32 19 -44 -11 -26 -15 -60 -17 -133 -1 -91 15 -177 53
-265 7 -16 13 -32 14 -35 7 -22 62 -131 78 -154 11 -16 22 -39 24 -50 1 -12 4
-28 6 -36 5 -23 39 -124 46 -135 3 -5 6 -16 7 -24 2 -7 12 -37 24 -66 12 -29
22 -60 24 -69 1 -8 5 -19 9 -22 4 -4 7 -14 7 -22 0 -36 140 -279 153 -266 3 3
8 -3 11 -13 4 -11 23 -29 44 -41 23 -13 38 -29 39 -42 4 -47 71 -139 180 -248
63 -61 118 -112 122 -112 5 0 24 -13 42 -30 19 -16 41 -30 51 -30 9 0 21 -13
27 -31 16 -47 269 -289 302 -289 11 0 12 -30 2 -30 -16 0 -162 -139 -250 -236
-87 -98 -133 -154 -133 -166 0 -5 -4 -7 -9 -3 -5 3 -12 -4 -16 -15 -3 -11 -12
-26 -18 -32 -22 -23 -67 -87 -67 -94 0 -4 -12 -23 -27 -42 -35 -46 -164 -303
-157 -314 3 -4 1 -8 -4 -8 -6 0 -13 -16 -17 -36 -3 -20 -10 -44 -16 -53 -13
-24 -39 -133 -33 -143 3 -4 2 -8 -3 -8 -15 0 -15 -118 0 -147 8 -15 17 -61 20
-100 7 -83 44 -178 81 -205 45 -33 105 -28 146 14 l32 31 22 -28 c44 -55 98
-60 150 -13 11 10 24 14 30 10 10 -7 24 -7 67 -3 9 0 36 17 60 36 36 28 46 32
59 21 17 -14 48 -15 68 -3 6 5 12 6 12 3 0 -8 42 28 96 82 24 24 44 48 44 53
0 6 32 41 70 78 39 37 70 65 70 62 0 -3 30 38 66 90 73 105 201 357 195 383
-1 5 2 12 6 15 8 6 80 216 74 216 -1 0 3 14 9 30 7 17 14 41 16 54 10 50 16
51 87 4 98 -64 225 -128 299 -151 64 -20 145 -22 157 -4 11 16 51 34 51 22 0
-20 69 -41 110 -35 89 13 254 89 380 175 34 23 61 36 65 30 3 -6 3 -15 0 -20
-3 -6 -1 -10 5 -10 6 0 9 -4 5 -9 -3 -5 -1 -12 5 -16 6 -4 8 -10 6 -14 -3 -4
7 -40 20 -81 14 -41 27 -82 29 -90 17 -68 94 -248 143 -335 18 -33 36 -68 39
-77 3 -10 9 -18 14 -18 5 0 9 -7 9 -15 0 -8 5 -15 10 -15 6 0 10 -6 10 -12 1
-19 45 -71 133 -158 42 -42 77 -80 77 -85 0 -4 10 -16 22 -26 11 -11 18 -19
15 -19 -9 0 33 -40 80 -78 47 -37 78 -44 114 -26 22 11 27 10 39 -7 8 -10 20
-19 27 -19 7 0 13 -4 13 -10 0 -16 75 -31 103 -21 20 8 29 5 48 -15 36 -39 83
-33 131 16 21 23 38 37 38 32 0 -5 11 -21 25 -35 43 -42 111 -40 157 5 20 20
51 78 42 78 -4 0 -2 6 4 13 14 17 26 83 24 136 -1 28 5 49 15 59 12 13 14 30
9 91 -5 73 -12 123 -16 129 -3 2 -4 7 -14 47 -4 17 -11 39 -16 50 -5 11 -14
38 -21 60 -18 62 -108 242 -161 323 -26 41 -48 78 -48 83 0 5 -4 9 -8 9 -4 0
-16 15 -27 33 -10 17 -21 34 -25 37 -3 3 -21 25 -40 50 -19 25 -40 49 -47 53
-7 4 -13 12 -13 18 0 11 -5 16 -160 173 -58 59 -120 117 -137 129 -18 12 -33
25 -33 28 0 4 26 26 58 50 133 100 276 251 256 272 -3 2 8 9 24 15 15 5 35 16
43 24 8 8 21 19 31 24 43 24 188 160 188 176 0 6 3 8 7 5 8 -8 93 106 117 157
9 20 14 40 11 46 -3 5 9 17 27 26 36 18 72 56 116 119 15 22 31 43 35 46 5 3
8 9 8 13 0 3 12 34 28 68 16 35 41 97 55 138 14 41 44 127 66 190 23 63 39
123 36 133 -2 10 5 23 17 32 12 8 18 15 13 15 -5 0 -2 8 6 18 13 14 26 40 33
62 1 3 13 30 27 60 28 60 54 136 64 190 11 55 9 223 -3 245 -9 16 -7 25 13 48
13 16 24 34 25 40 0 7 3 21 5 32 12 45 16 97 19 240 4 165 -15 279 -55 336
-15 21 -18 33 -11 46 22 41 -3 192 -55 338 -14 39 -27 75 -28 80 -5 21 -51
111 -63 123 -7 7 -20 26 -30 42 -9 17 -20 30 -24 30 -3 0 -9 19 -13 42 -4 23
-11 47 -16 53 -4 5 -8 12 -7 15 2 16 -82 164 -118 207 -5 6 -21 27 -35 46 -13
18 -41 46 -61 61 -23 17 -36 36 -36 49 1 36 -14 87 -25 87 -6 0 -8 3 -5 7 6 6
-36 71 -80 123 -27 33 -103 110 -103 106 0 -3 -15 10 -33 27 -18 18 -52 48
-76 67 -23 19 -52 43 -63 53 -12 9 -24 17 -28 17 -14 0 -18 24 -8 50 7 20 11
22 18 10 7 -11 10 -12 10 -2 0 7 4 11 9 8 12 -8 61 32 61 49 0 8 9 13 20 12
11 -1 20 -5 20 -9 0 -12 84 -1 88 11 2 6 10 11 17 11 9 0 12 8 10 21 -4 18 -1
20 28 13 18 -3 34 -9 37 -13 15 -19 90 14 90 40 0 12 6 16 20 12 11 -3 20 -10
20 -15 0 -5 5 -6 10 -3 6 4 16 2 23 -3 7 -5 30 -10 53 -10 34 -2 43 2 54 23
16 29 23 31 41 9 11 -14 44 -32 72 -39 4 -2 8 -4 10 -5 1 -1 16 -3 32 -5 38
-3 72 12 78 36 3 12 11 16 26 12 12 -3 21 -9 21 -13 0 -13 109 -62 148 -66 42
-5 82 12 97 42 13 26 28 24 91 -15 27 -17 63 -34 78 -37 16 -3 31 -6 35 -6 12
-4 51 14 51 22 0 11 41 4 49 -8 13 -18 71 -53 80 -47 5 3 12 1 16 -4 10 -17
49 -3 73 26 19 24 24 26 32 13 5 -8 10 -10 10 -5 0 6 5 2 11 -8 6 -9 14 -15
19 -12 5 3 11 1 14 -4 8 -13 63 4 88 26 20 18 22 18 48 -29 17 -28 100 -80
134 -83 17 -2 37 2 45 9 8 6 28 11 45 12 17 0 46 4 63 8 26 6 39 3 63 -14 31
-22 53 -29 110 -34 19 -2 50 -6 68 -10 76 -14 100 -17 150 -18 28 -1 52 -4 52
-8 0 -6 68 -31 100 -36 61 -11 88 -3 115 30 19 23 25 26 48 17 58 -22 105 12
103 75 -1 21 -5 45 -9 52 -5 6 -6 12 -3 12 2 0 -13 37 -35 81 -41 84 -106 185
-146 229 -13 14 -23 28 -23 32 0 11 -184 190 -246 239 -60 47 -208 149 -217
149 -3 0 -33 16 -66 35 -34 19 -64 34 -66 35 -7 1 -24 7 -60 21 -16 7 -34 13
-40 14 -5 0 -17 4 -25 8 -21 9 -124 37 -157 43 -38 7 -49 18 -47 51 1 43 -40
77 -126 101 -41 12 -90 23 -107 24 -18 1 -33 5 -33 9 0 3 -12 5 -27 3 -15 -1
-35 2 -44 7 -12 6 -20 5 -24 -1 -4 -6 -12 -7 -18 -3 -7 4 -25 9 -42 10 -77 7
-480 1 -480 -7 0 -1 -22 -3 -50 -5 -65 -6 -84 -8 -220 -31 -11 -2 -46 -9 -77
-17 -32 -8 -58 -12 -58 -8 0 3 -4 1 -8 -6 -4 -6 -20 -13 -37 -16 -86 -14 -383
-146 -436 -193 -8 -8 -21 -14 -27 -14 -7 0 -12 -4 -12 -8 0 -4 -12 -15 -27
-24 -102 -61 -315 -289 -356 -380 -6 -16 -15 -28 -19 -28 -5 0 -8 -5 -8 -11 0
-6 -9 -23 -19 -37 -10 -15 -19 -30 -20 -35 0 -4 -8 -21 -17 -39 -16 -31 -16
-31 -33 -11 -9 12 -52 43 -96 69 -44 26 -81 52 -83 56 -2 4 -8 8 -13 8 -5 0
-32 14 -59 31 -48 30 -51 33 -47 68 2 23 -4 52 -18 81 -12 25 -20 59 -18 75 1
17 -3 43 -9 59 -13 33 -13 77 0 121 5 17 5 45 1 64 -4 18 -4 43 0 55 5 11 7
30 4 41 -2 11 -4 29 -5 40 -1 11 -6 26 -11 33 -5 7 -10 50 -9 97 0 47 -3 85
-6 85 -4 0 -8 11 -8 24 -1 13 -13 46 -26 72 -18 36 -26 73 -31 139 -7 104 -55
240 -103 295 -7 8 -15 27 -18 42 -9 50 -43 113 -84 156 -23 23 -42 47 -42 52
0 6 -4 18 -9 28 -5 9 -23 46 -41 82 -62 125 -138 222 -190 242 -30 12 -99 15
-139 7z m125 -59 c20 -8 72 -67 101 -115 51 -83 87 -152 98 -189 8 -27 32 -62
63 -94 34 -34 52 -63 56 -87 4 -21 5 -39 2 -42 -3 -3 6 -17 19 -31 53 -57 113
-218 110 -297 0 -16 4 -33 10 -37 7 -5 6 -8 -1 -8 -13 0 -9 -60 4 -69 10 -7
26 -43 24 -53 -1 -5 2 -8 7 -8 19 0 35 -137 20 -176 -4 -13 0 -35 12 -60 20
-42 25 -110 9 -134 -5 -9 -5 -19 2 -27 6 -7 8 -29 4 -50 -12 -79 -12 -129 -1
-153 7 -14 11 -44 9 -67 -3 -28 1 -46 12 -57 8 -9 18 -31 21 -51 l6 -35 -60
24 c-57 22 -126 28 -152 12 -6 -4 -11 -2 -11 4 0 6 -13 16 -30 21 -16 6 -30
16 -30 22 0 6 -3 8 -6 4 -3 -3 -17 -1 -31 4 -14 5 -44 12 -67 15 -22 2 -54 8
-71 11 -61 13 -414 7 -440 -8 -5 -3 -22 -5 -37 -4 -16 1 -28 -2 -28 -7 0 -4
-11 -8 -24 -8 -14 0 -28 -5 -31 -10 -4 -6 -10 -8 -15 -5 -4 3 -22 -7 -39 -21
-24 -20 -35 -23 -45 -15 -18 15 -114 6 -127 -12 -3 -5 -12 -9 -20 -10 -8 -2
-19 -6 -26 -10 -6 -4 -14 -3 -18 2 -9 16 3 64 20 73 11 7 15 24 14 63 -1 30 3
60 9 67 11 14 10 117 -2 136 -3 6 -4 24 -1 39 4 15 6 33 5 38 -8 71 -1 145 13
156 5 4 9 17 8 30 -3 110 -1 152 9 164 6 8 9 19 5 25 -3 5 -3 10 2 10 19 0 48
98 50 169 1 64 34 193 53 211 3 3 14 22 25 43 11 20 22 37 26 37 7 0 22 40 20
54 -6 34 63 140 99 151 12 4 20 21 25 50 3 25 11 45 17 45 6 0 9 3 5 6 -3 3 8
28 24 55 16 28 29 54 29 59 0 6 3 10 8 10 4 0 13 12 19 28 21 44 86 113 111
115 12 1 22 5 22 9 0 8 74 0 106 -12z m-2561 -1245 c94 -6 160 -12 160 -15 0
-1 16 -3 35 -5 19 -2 46 -6 60 -9 14 -2 45 -7 70 -11 25 -4 50 -11 56 -16 6
-5 13 -7 15 -4 3 2 23 -1 45 -7 21 -6 42 -11 47 -10 4 1 7 -2 7 -7 0 -6 9 -8
20 -6 11 2 20 -1 20 -6 0 -6 4 -8 8 -5 5 3 21 -1 35 -9 15 -8 30 -14 33 -14
14 2 104 -36 104 -43 0 -5 6 -8 13 -7 16 3 67 -22 67 -33 0 -4 3 -8 8 -7 16 2
52 -14 52 -24 0 -6 3 -8 6 -4 4 3 21 -5 39 -18 17 -14 37 -25 43 -25 7 0 12
-5 12 -11 0 -5 5 -7 10 -4 6 3 10 2 10 -3 0 -5 19 -22 43 -37 56 -38 173 -154
236 -237 28 -38 49 -68 46 -68 -3 0 3 -9 13 -20 17 -18 92 -152 92 -164 0 -3
-48 -29 -107 -57 -60 -28 -110 -55 -113 -59 -3 -4 -21 -15 -40 -24 -43 -19
-110 -83 -110 -102 0 -8 -4 -15 -10 -15 -39 -5 -45 -2 -54 29 -8 29 -13 32
-42 30 -39 -2 -61 14 -69 53 -8 34 -10 34 -59 14 -20 -8 -36 -12 -36 -8 0 4
-5 2 -12 -5 -16 -16 -50 25 -46 58 2 14 -1 25 -7 24 -21 -2 -55 -17 -55 -23 0
-4 -14 -8 -31 -9 -39 -3 -67 20 -64 53 2 18 -1 23 -16 22 -10 -1 -19 -4 -19
-8 0 -9 -75 -41 -97 -42 -42 0 -51 4 -57 28 -7 29 -22 31 -53 10 -49 -34 -127
-68 -131 -56 -2 6 -8 9 -13 6 -4 -3 -11 7 -15 22 -12 56 -12 56 -58 24 -25
-17 -49 -31 -55 -31 -6 0 -11 -4 -11 -8 0 -10 -96 -46 -125 -47 -23 -1 -57 24
-49 36 3 5 0 9 -5 9 -6 0 -10 3 -10 8 5 28 -2 41 -18 35 -10 -4 -20 -9 -23
-12 -14 -16 -132 -76 -144 -73 -4 2 -14 -2 -22 -8 -13 -12 -54 -5 -54 9 0 4
-6 16 -14 26 -13 18 -14 18 -38 -6 -99 -97 -158 -106 -162 -24 -2 43 -16 43
-60 -2 -36 -36 -49 -43 -68 -38 -22 7 -30 14 -64 60 -14 20 -14 20 -27 1 -6
-10 -24 -32 -39 -47 -15 -16 -24 -29 -21 -29 9 0 -58 -60 -77 -69 -8 -4 -21
-6 -27 -5 -7 1 -17 2 -23 3 -5 0 -10 8 -10 16 0 16 -27 20 -49 6 -16 -10 -71
6 -71 20 0 16 -39 9 -52 -9 -18 -25 -76 -49 -121 -50 -21 -1 -42 -4 -47 -7
-17 -11 -76 -20 -186 -29 -23 -2 -51 -9 -63 -15 -11 -7 -21 -9 -21 -6 0 4 -6
3 -12 -2 -7 -4 -17 -8 -23 -10 -5 -1 -21 -4 -34 -7 -36 -8 -63 20 -56 55 6 25
4 27 -17 22 -13 -3 -27 -9 -33 -13 -5 -4 -25 -12 -42 -18 -28 -9 -34 -8 -43 7
-5 11 -6 30 -1 47 14 46 73 164 82 164 5 0 9 6 9 13 0 16 75 127 98 145 9 6
12 12 7 12 -11 0 205 212 260 255 50 39 165 114 188 121 9 4 17 10 17 14 0 5
16 14 35 20 19 6 35 16 35 21 0 6 5 7 10 4 6 -4 16 -2 23 3 16 14 137 62 137
55 0 -3 6 -1 13 4 6 6 26 14 42 18 17 4 39 9 50 12 11 3 28 5 38 5 9 -1 17 3
17 9 0 5 3 8 8 7 18 -5 102 14 108 25 4 7 4 9 -1 5 -5 -5 -15 2 -24 15 -14 20
-16 28 -12 55 2 18 76 43 196 68 27 5 119 15 183 18 29 2 54 5 56 7 6 5 236 1
351 -6z m5116 6 c0 10 2 11 6 1 2 -6 10 -9 16 -5 13 8 197 11 197 3 0 -3 33
-6 73 -8 78 -4 132 -9 132 -12 0 -1 16 -4 35 -6 36 -3 115 -24 162 -42 28 -12
49 -53 29 -60 -6 -2 -11 -10 -11 -18 0 -8 -4 -14 -10 -14 -5 0 -10 -5 -10 -11
0 -6 7 -9 15 -6 8 4 17 2 20 -3 4 -6 19 -10 36 -10 16 0 29 -5 29 -11 0 -5 4
-8 9 -5 4 3 39 -4 77 -15 38 -11 76 -21 84 -23 9 -1 21 -5 28 -10 6 -4 21 -9
32 -11 53 -10 273 -129 313 -169 8 -8 17 -13 19 -11 3 3 15 -6 28 -20 13 -14
30 -25 38 -25 9 0 12 -3 8 -7 -3 -4 2 -12 13 -18 30 -15 213 -197 222 -220 2
-5 13 -19 24 -31 30 -32 90 -116 90 -125 0 -5 9 -19 20 -31 10 -13 18 -23 17
-23 -2 0 5 -18 14 -40 10 -22 18 -42 19 -45 1 -3 5 -12 9 -21 4 -8 8 -29 9
-45 2 -26 -1 -29 -28 -29 -16 -1 -47 7 -67 17 -48 23 -48 24 -41 -16 4 -28 1
-36 -16 -45 -12 -7 -32 -8 -48 -4 -16 4 -34 6 -40 5 -7 -2 -13 2 -13 8 0 5 -8
10 -18 10 -10 0 -22 3 -26 7 -4 4 -26 8 -49 10 -85 5 -172 18 -211 32 -12 5
-30 7 -41 5 -27 -5 -94 27 -101 49 -7 22 -11 21 -63 -4 -33 -16 -46 -18 -57
-8 -8 6 -14 8 -14 4 0 -4 -7 -2 -15 5 -12 10 -15 10 -15 -1 0 -8 -9 -20 -21
-27 -18 -11 -26 -10 -65 13 -24 14 -44 32 -44 40 0 8 -7 15 -17 15 -9 0 -14 3
-10 6 5 6 -6 22 -50 71 -21 24 -21 24 -28 3 -4 -11 -17 -32 -30 -46 -30 -33
-57 -26 -107 27 -35 38 -37 39 -48 19 -6 -11 -9 -20 -6 -20 3 0 0 -13 -5 -30
-17 -48 -58 -39 -131 28 -45 42 -68 49 -68 21 0 -24 -48 -49 -59 -31 -4 7 -15
10 -24 6 -10 -3 -17 -1 -17 6 0 6 -4 9 -8 6 -5 -3 -18 2 -28 12 -11 9 -26 18
-34 20 -8 2 -18 9 -22 15 -4 7 -8 8 -8 3 0 -5 -8 -2 -17 6 -36 31 -51 29 -57
-8 -7 -35 -40 -65 -66 -60 -40 8 -109 40 -165 76 -52 34 -76 43 -74 27 7 -53
-26 -92 -57 -66 -8 6 -14 9 -14 5 0 -7 -104 55 -108 66 -5 11 -32 -3 -32 -17
0 -42 -66 -52 -117 -19 -13 8 -23 12 -23 9 0 -4 -7 1 -16 9 -22 23 -34 20 -34
-9 0 -14 -5 -25 -11 -25 -5 0 -8 -4 -5 -9 3 -5 -1 -12 -10 -15 -25 -10 -64 -7
-64 5 0 5 -4 8 -9 5 -4 -3 -17 1 -27 9 -28 22 -34 18 -34 -20 0 -24 -6 -37
-20 -45 -20 -11 -66 -4 -87 13 -7 5 -13 6 -13 2 0 -4 -6 -2 -13 4 -10 8 -14 7
-15 -2 -4 -46 -22 -76 -50 -82 -12 -2 -22 1 -22 6 0 19 -38 -10 -44 -35 -8
-34 -66 -44 -66 -11 0 23 -53 70 -129 116 -41 24 -77 44 -80 45 -16 2 -147 69
-153 78 -10 16 118 235 143 244 5 2 9 8 9 13 0 33 263 279 299 279 5 0 12 7
15 16 3 8 10 12 16 9 5 -3 10 -2 10 3 0 8 50 36 59 32 2 -1 7 2 10 7 5 9 85
49 171 86 46 20 218 75 256 81 16 2 29 5 29 6 0 2 9 4 20 5 11 2 34 6 50 9 43
10 85 16 125 21 19 2 35 4 35 6 0 2 36 5 154 13 52 3 96 8 99 11 3 3 11 0 19
-6 10 -9 13 -8 14 2z m-2383 -544 c45 -9 99 -24 119 -34 35 -17 38 -23 48 -80
7 -34 8 -68 4 -75 -4 -7 -5 -16 -3 -20 7 -11 -43 -10 -91 2 -82 21 -124 24
-310 24 -192 0 -248 -4 -342 -25 -75 -17 -82 -11 -78 58 2 32 5 67 8 77 4 21
56 53 98 61 61 13 78 15 134 21 33 4 61 7 62 8 10 8 287 -6 351 -17z m-713
-87 c9 -30 -9 -169 -21 -157 -3 2 -30 -20 -62 -49 -31 -30 -60 -54 -64 -54 -4
0 -14 -7 -22 -16 -9 -8 -54 -39 -100 -68 -91 -57 -131 -65 -150 -31 -6 11 -13
22 -16 25 -3 3 -6 11 -8 19 -2 8 -10 30 -19 50 -29 65 -29 65 47 110 30 17 84
50 119 72 77 49 193 109 229 118 36 10 60 3 67 -19z m1109 -25 c47 -24 111
-61 143 -82 32 -21 61 -36 66 -35 4 1 7 -2 7 -8 0 -6 5 -10 11 -10 6 0 28 -12
49 -27 28 -20 38 -34 36 -48 -6 -31 -59 -149 -71 -157 -15 -11 -55 -10 -55 2
0 6 -4 9 -8 8 -21 -6 -222 135 -303 212 -37 35 -48 83 -41 173 3 33 73 22 166
-28z m-424 -149 c30 -3 80 -13 110 -21 30 -9 67 -19 83 -22 15 -3 27 -9 27
-14 0 -5 6 -9 14 -9 33 0 289 -213 301 -249 9 -28 -9 -64 -57 -112 -55 -56
-115 -109 -124 -109 -4 0 -15 -10 -25 -22 -11 -11 -19 -18 -19 -13 0 4 -6 3
-13 -3 -25 -21 -138 -73 -146 -67 -5 3 -11 1 -13 -5 -1 -5 -15 -11 -30 -12
-16 -1 -28 -5 -28 -9 0 -4 -8 -6 -17 -4 -10 1 -27 -1 -39 -5 -64 -24 -272 -30
-399 -12 -49 7 -100 13 -112 14 -13 1 -23 5 -23 8 0 3 -12 7 -27 8 -16 1 -30
7 -31 12 -2 6 -7 8 -12 5 -4 -3 -21 2 -36 10 -16 8 -35 15 -41 15 -7 0 -13 5
-13 12 0 6 -3 8 -7 5 -3 -4 -15 0 -25 10 -10 9 -18 13 -18 9 0 -9 -135 100
-178 143 -42 42 -61 72 -67 99 -4 23 54 88 139 157 27 22 54 45 60 50 31 28
122 80 159 90 4 2 8 3 10 5 9 7 116 29 171 35 33 3 61 7 63 8 4 5 303 -1 363
-7z m-1232 -95 c14 -1 65 -103 65 -130 0 -47 -5 -53 -75 -85 -40 -19 -111 -52
-157 -75 -116 -57 -125 -57 -166 -14 -19 20 -32 40 -29 45 3 4 1 8 -4 8 -5 0
-14 11 -20 24 -9 20 -7 28 16 53 15 16 45 40 67 53 22 13 42 26 45 29 3 4 12
7 20 9 8 2 17 8 18 13 2 5 7 9 12 9 4 0 34 12 66 27 33 15 62 28 66 28 3 0 9
3 12 6 4 3 17 5 29 4 12 -1 28 -3 35 -4z m2114 -6 c9 -2 31 -11 50 -21 18 -10
39 -17 46 -16 6 2 12 -1 12 -6 0 -5 23 -19 50 -32 28 -13 50 -27 50 -32 0 -4
7 -8 15 -8 8 0 24 -9 35 -20 11 -11 20 -17 20 -12 0 4 9 -6 19 -22 22 -33 19
-43 -22 -104 -47 -70 -60 -70 -195 -7 -244 115 -242 114 -211 196 24 63 40 87
59 93 14 4 23 3 72 -9z m454 -280 c6 -5 29 -23 50 -40 198 -154 353 -343 332
-406 -9 -26 -105 -92 -139 -94 -10 -1 -28 12 -40 29 -28 38 -40 53 -59 75 -8
9 -27 33 -42 53 -30 40 -166 179 -213 219 -16 14 -38 34 -48 46 -18 20 -18 22
2 60 25 47 39 64 70 85 22 16 26 16 50 0 14 -9 31 -21 37 -27z m-2984 3 c44
-47 63 -95 46 -116 -21 -28 -68 -74 -68 -68 0 6 -122 -118 -177 -179 -18 -20
-33 -41 -33 -45 0 -5 -4 -10 -8 -12 -4 -1 -23 -23 -42 -48 -47 -61 -55 -68
-71 -71 -37 -7 -149 69 -149 101 0 21 48 114 76 150 29 37 154 159 204 199 25
20 47 39 48 44 2 4 8 7 14 7 6 0 18 8 27 18 25 28 64 52 84 52 11 0 33 -15 49
-32z m571 0 c12 -6 58 -46 102 -89 44 -43 104 -99 132 -126 54 -50 68 -83 49
-117 -6 -11 -38 -47 -71 -81 -123 -127 -191 -203 -247 -279 -13 -16 -31 -38
-40 -48 -10 -10 -18 -22 -18 -26 0 -5 -8 -17 -17 -28 -10 -10 -31 -37 -48 -59
-73 -98 -112 -113 -280 -109 -120 3 -205 9 -280 19 -22 3 -51 7 -65 9 -188 26
-226 43 -214 94 7 32 119 222 152 257 12 13 22 28 22 32 0 5 14 23 30 41 17
18 30 36 30 39 0 3 10 14 22 24 11 11 18 19 15 19 -14 0 166 166 234 216 41
30 79 59 86 64 7 6 16 10 20 10 4 0 19 9 33 20 14 11 33 20 42 20 9 0 18 4 20
10 5 17 201 99 236 99 18 1 43 -4 55 -11z m1834 1 c15 -7 56 -25 91 -40 35
-16 67 -29 72 -29 6 0 10 -4 10 -9 0 -5 11 -12 24 -15 14 -3 31 -12 38 -19 13
-11 24 -18 81 -49 12 -7 24 -15 27 -18 3 -3 37 -30 75 -60 106 -82 209 -190
296 -311 29 -41 56 -76 60 -79 4 -3 15 -21 26 -40 10 -19 30 -53 44 -75 50
-77 57 -127 22 -151 -14 -8 -27 -13 -30 -10 -3 3 -14 1 -24 -4 -9 -6 -37 -12
-61 -15 -24 -3 -54 -7 -68 -9 -215 -32 -438 -40 -509 -20 -45 13 -121 77 -121
102 0 7 -4 11 -9 8 -4 -3 -13 5 -19 19 -6 13 -18 32 -26 42 -8 10 -37 46 -65
81 -82 103 -120 148 -196 227 -40 41 -70 77 -67 80 3 3 -2 5 -11 5 -10 0 -17
4 -17 8 0 5 -9 19 -20 32 -37 42 -27 76 41 138 34 32 94 90 135 130 41 40 74
70 74 67 0 -4 7 1 16 9 18 19 71 21 111 5z m-1277 -363 c8 -2 24 -5 35 -9 20
-6 79 -14 164 -23 24 -2 47 -7 52 -10 5 -3 9 1 10 8 0 7 2 8 5 3 6 -16 233 0
305 21 60 17 199 27 199 13 0 -5 6 -9 14 -9 16 0 182 -161 263 -255 83 -96 88
-102 109 -130 10 -15 24 -32 29 -39 28 -30 67 -86 60 -86 -4 0 -2 -7 5 -15 7
-8 9 -15 4 -15 -4 0 -3 -5 4 -12 8 -8 8 -17 1 -31 -8 -14 -8 -17 0 -13 29 19
-25 -72 -71 -116 -15 -16 -26 -28 -24 -28 3 0 -138 -139 -187 -185 -12 -11
-53 -45 -92 -75 -38 -30 -72 -57 -75 -60 -15 -15 -200 -112 -200 -104 0 2 -12
-1 -27 -7 -34 -14 -84 -27 -138 -36 -45 -8 -221 -8 -275 0 -84 12 -201 51
-266 88 -21 12 -48 27 -59 33 -52 29 -178 130 -256 206 -25 25 -67 64 -92 88
-26 23 -44 42 -42 42 3 0 -10 15 -30 34 -19 19 -35 39 -35 45 0 6 -4 11 -9 11
-10 0 -27 39 -23 53 1 4 -2 7 -7 7 -5 0 -5 18 1 42 8 39 85 157 147 227 14 16
46 53 71 82 74 87 228 236 263 253 30 15 62 16 167 2z m-1625 -178 c14 -6 25
-15 25 -19 0 -4 9 -11 20 -14 11 -4 27 -19 35 -35 13 -26 12 -31 -13 -71 -55
-86 -90 -148 -97 -168 -3 -12 -11 -21 -16 -21 -5 0 -9 -5 -9 -11 0 -7 -12 -31
-27 -54 l-26 -42 -65 33 c-36 19 -71 34 -78 34 -25 0 -26 44 -2 95 63 136 175
285 213 285 8 0 26 -5 40 -12z m3967 -39 c26 -28 48 -57 48 -64 0 -7 4 -15 8
-17 9 -3 95 -138 88 -138 -2 0 4 -17 14 -37 10 -20 16 -43 13 -50 -6 -15 -129
-75 -160 -78 -14 -1 -25 7 -33 24 -7 14 -10 26 -8 26 1 0 -7 13 -19 29 -13 16
-23 33 -23 38 0 11 -51 90 -65 100 -5 4 -6 8 -2 8 4 0 -3 15 -17 33 -14 19
-23 37 -19 40 3 4 1 7 -5 7 -13 0 -16 39 -4 55 16 23 97 75 116 75 11 0 41
-23 68 -51z m-4144 -418 c22 -11 42 -26 44 -33 6 -18 -3 -58 -13 -58 -5 0 -9
-6 -9 -14 0 -8 -5 -27 -12 -43 -14 -35 -12 -29 -28 -85 -8 -27 -18 -48 -23
-48 -4 0 -5 -4 -2 -10 3 -5 3 -16 -2 -22 -4 -7 -8 -17 -10 -23 -3 -16 -13 -58
-19 -85 -3 -14 -9 -40 -12 -59 -6 -28 -12 -34 -34 -37 -16 -1 -28 0 -28 4 0 4
-38 7 -85 6 -47 0 -86 3 -86 8 -1 4 -2 14 -3 21 -1 6 2 30 7 52 5 22 10 53 13
69 3 26 26 107 41 146 4 8 7 17 8 20 25 71 83 185 108 212 25 27 27 27 65 14
21 -8 57 -23 80 -35z m4363 21 c16 -18 57 -94 94 -174 9 -20 14 -41 11 -47 -3
-5 -2 -11 4 -13 11 -4 61 -188 54 -199 -3 -5 -1 -9 3 -9 7 0 9 -33 4 -78 -1
-10 -14 -12 -53 -9 -29 3 -75 1 -102 -4 -30 -5 -54 -5 -65 1 -9 5 -13 10 -9
10 3 0 2 17 -4 37 -6 21 -11 47 -13 58 -4 33 -57 199 -67 212 -5 7 -7 17 -3
23 3 5 1 10 -4 10 -6 0 -10 3 -9 8 1 8 -7 30 -27 76 -7 16 -11 35 -8 41 6 16
98 66 107 58 3 -3 6 -1 6 6 0 7 5 9 10 6 6 -3 10 -2 10 4 0 15 41 4 61 -17z
m-3881 -37 c129 -18 217 -25 388 -30 136 -4 222 -18 222 -37 0 -4 6 -8 13 -8
7 0 74 -60 148 -132 74 -73 152 -149 174 -168 66 -57 86 -90 84 -130 -3 -31
-37 -93 -79 -141 -8 -9 -24 -28 -36 -40 -65 -74 -194 -243 -260 -341 -42 -62
-88 -125 -101 -139 -24 -26 -92 -51 -173 -63 -19 -3 -46 -8 -60 -11 -55 -12
-86 -18 -100 -19 -8 -2 -25 -6 -36 -10 -12 -3 -35 -8 -50 -10 -16 -3 -40 -9
-54 -14 -14 -5 -29 -10 -35 -11 -5 -1 -28 -6 -50 -12 -22 -6 -41 -11 -43 -10
-1 1 -18 -6 -38 -14 -20 -8 -46 -17 -58 -20 -11 -2 -41 -12 -66 -21 -46 -16
-83 -25 -110 -27 -24 -1 -70 25 -70 40 0 7 -5 13 -11 13 -5 0 -7 5 -4 10 3 6
1 10 -4 10 -6 0 -10 3 -10 8 1 4 0 9 -1 12 -2 7 -29 119 -34 145 -2 11 -6 31
-9 45 -7 26 -16 82 -24 140 -7 56 -10 410 -3 410 3 0 6 10 7 23 0 33 14 131
20 140 2 4 7 20 9 35 3 15 13 55 23 90 11 34 16 62 13 62 -4 0 -2 4 3 8 6 4
19 32 29 62 26 75 76 135 127 152 44 15 166 16 259 3z m3490 3 c0 -5 9 -8 20
-8 25 0 80 -39 80 -57 0 -7 3 -13 8 -13 4 0 12 -12 19 -27 17 -39 36 -87 37
-93 1 -3 5 -11 9 -17 5 -7 6 -17 2 -22 -3 -5 -1 -12 4 -15 4 -3 12 -20 16 -38
9 -37 12 -47 15 -50 1 -2 3 -12 5 -23 2 -11 7 -36 11 -55 12 -59 14 -73 18
-120 2 -25 5 -45 6 -45 10 0 13 -296 4 -360 -3 -22 -7 -53 -9 -70 -5 -47 -31
-187 -35 -192 -3 -3 -2 -1 -20 -75 -7 -32 -17 -58 -22 -58 -5 0 -7 -4 -4 -9 7
-11 -38 -61 -56 -62 -7 0 -21 -2 -30 -4 -10 -2 -18 0 -18 5 0 5 -7 7 -16 6 -9
-1 -58 12 -107 30 -50 18 -93 31 -95 29 -3 -2 -17 2 -33 11 -16 8 -29 12 -29
10 0 -3 -12 -1 -27 5 -16 6 -36 13 -45 15 -10 2 -28 7 -40 10 -62 16 -105 26
-128 28 -14 2 -25 4 -25 6 0 1 -9 3 -20 5 -11 1 -33 5 -50 9 -16 3 -43 9 -60
12 -154 28 -170 38 -242 153 -20 31 -45 66 -56 79 -11 12 -17 22 -13 22 4 0 1
6 -6 14 -20 21 -41 48 -68 86 -13 19 -32 42 -42 51 -10 9 -18 19 -18 23 0 6
-23 36 -55 70 -11 12 -32 38 -47 58 -15 20 -34 42 -41 50 -22 22 -51 70 -63
103 -9 28 -7 37 20 79 17 25 39 49 49 52 9 3 15 10 12 15 -4 5 -2 9 4 9 11 0
119 100 215 199 51 53 126 113 146 116 3 1 21 5 40 10 19 4 91 9 160 11 169 5
313 16 398 31 56 10 222 10 222 1z m-4127 -563 c21 -4 41 -15 46 -24 5 -9 8
-64 7 -124 0 -59 1 -107 4 -107 3 0 6 -24 6 -53 2 -103 9 -187 14 -187 8 0 5
-69 -4 -77 -4 -4 -19 -8 -34 -9 -15 -1 -52 -5 -82 -9 -30 -4 -63 -8 -72 -8
-10 -1 -18 -5 -18 -9 0 -11 -57 -10 -64 0 -24 40 -39 324 -22 432 10 66 11 71
30 117 26 62 83 80 189 58z m4679 -9 c50 -36 72 -130 72 -316 0 -80 -4 -161
-8 -180 -4 -19 -7 -47 -7 -62 1 -16 -4 -28 -9 -28 -6 0 -8 -4 -5 -10 7 -12
-58 -14 -69 -2 -4 4 -11 7 -14 8 -4 0 -25 3 -47 7 -22 4 -62 9 -88 12 -52 5
-70 12 -63 24 11 17 28 263 29 416 1 63 6 115 12 121 30 31 158 37 197 10z
m-2772 -16 c11 -6 20 -9 20 -6 0 3 15 -1 34 -9 18 -8 36 -11 40 -8 3 4 6 1 6
-6 0 -7 5 -9 11 -6 5 4 22 2 37 -3 74 -29 275 -32 392 -6 14 3 36 7 50 10 27
5 85 22 110 31 54 21 120 23 155 5 37 -18 93 -77 200 -209 11 -14 30 -36 43
-49 13 -13 21 -24 18 -24 -3 0 11 -17 29 -37 19 -21 35 -43 35 -50 0 -6 3 -13
8 -15 33 -14 120 -176 116 -218 -3 -39 -39 -100 -84 -140 -60 -53 -213 -163
-260 -187 -19 -10 -37 -20 -40 -23 -22 -24 -254 -114 -287 -111 -2 0 -17 -5
-35 -10 -94 -27 -297 -29 -463 -4 -103 15 -271 79 -370 140 -22 14 -47 28 -55
32 -16 8 -31 19 -61 46 -10 9 -21 17 -24 17 -20 0 -141 103 -186 158 -19 23
-40 110 -29 117 4 3 11 17 14 32 7 28 63 115 78 121 4 2 8 10 8 18 0 8 5 14
10 14 6 0 10 4 10 10 0 5 9 20 19 32 10 13 54 66 97 118 184 223 205 241 285
235 26 -2 57 -9 69 -15z m-1803 -637 c28 -24 50 -105 69 -248 3 -27 8 -59 11
-70 7 -31 15 -106 17 -150 1 -37 -1 -40 -34 -49 -19 -6 -69 -27 -110 -47 -41
-20 -80 -34 -86 -32 -24 9 -129 263 -140 338 -13 84 -3 203 18 216 7 5 9 9 3
9 -21 0 38 32 67 35 17 3 32 6 34 8 3 2 32 5 67 6 49 1 68 -2 84 -16z m4503 3
c14 -3 35 -11 48 -18 54 -29 63 -202 16 -331 -8 -23 -16 -46 -18 -52 -12 -40
-86 -194 -96 -200 -4 -2 -36 10 -71 27 -35 17 -67 31 -71 30 -5 -1 -8 2 -8 8
0 6 -3 9 -7 8 -5 -1 -20 2 -36 7 -34 9 -51 39 -41 73 4 15 8 41 9 57 2 17 8
60 14 96 6 37 12 79 13 93 1 14 5 26 9 26 3 0 5 11 4 23 -4 33 33 138 53 154
17 13 123 12 182 -1z m-3358 -95 c25 -12 59 -34 75 -49 64 -60 223 -172 243
-172 6 0 8 -4 5 -10 -3 -5 -1 -10 5 -10 16 0 66 -53 76 -80 10 -31 13 -72 5
-85 -3 -5 -6 -12 -6 -15 -3 -21 -18 -50 -26 -50 -6 0 -7 -4 -4 -10 3 -5 1 -10
-4 -10 -6 0 -11 -7 -11 -15 0 -8 -4 -15 -9 -15 -5 0 -13 -9 -16 -20 -3 -11
-12 -26 -19 -32 -11 -12 -50 -77 -160 -266 -40 -70 -85 -100 -174 -117 -9 -2
-17 -4 -17 -5 0 -1 -7 -3 -15 -5 -8 -1 -42 -11 -75 -21 -33 -10 -64 -19 -70
-19 -5 0 -15 -3 -20 -7 -6 -3 -27 -9 -48 -13 -20 -4 -37 -12 -37 -18 0 -6 -3
-8 -6 -5 -3 3 -33 -3 -67 -13 -107 -33 -162 -24 -218 33 -35 36 -175 244 -181
268 -2 8 -6 17 -9 20 -9 7 -79 151 -79 162 0 4 -9 28 -21 53 -11 24 -18 49
-14 55 3 5 1 10 -6 10 -7 0 -10 3 -6 6 3 3 2 17 -3 30 -9 22 -20 86 -25 146
-3 35 38 96 70 104 14 3 25 9 25 13 0 8 110 46 123 43 4 -1 7 3 7 10 0 6 3 9
6 5 3 -3 18 -1 33 5 30 11 54 18 94 25 15 3 27 8 27 12 0 4 8 7 18 7 18 1 28
3 132 28 36 8 78 17 94 20 41 7 120 20 128 21 3 0 9 3 12 6 14 14 125 1 168
-20z m2243 11 c33 -6 74 -14 90 -17 17 -4 39 -8 50 -10 35 -7 66 -14 85 -20
18 -6 38 -10 87 -21 12 -2 33 -8 47 -14 13 -5 27 -6 30 -3 3 4 6 2 6 -3 0 -5
8 -10 19 -11 28 -2 170 -52 220 -77 69 -34 86 -64 84 -147 -1 -39 -7 -77 -14
-85 -6 -8 -9 -14 -6 -14 8 0 -20 -96 -41 -140 -9 -19 -16 -39 -17 -45 0 -16
-66 -149 -77 -156 -5 -3 -8 -8 -6 -11 5 -8 -134 -221 -169 -257 -72 -74 -119
-77 -308 -17 -5 2 -17 5 -25 8 -45 17 -158 48 -172 48 -9 0 -20 5 -23 11 -4 6
-13 8 -20 5 -7 -2 -16 -2 -20 2 -4 4 -10 7 -13 8 -75 9 -172 72 -172 112 0 6
-3 12 -7 12 -5 0 -17 19 -28 43 -11 23 -51 92 -89 152 -121 192 -136 218 -137
239 -1 12 -2 28 -3 36 -2 20 18 60 42 85 31 32 72 65 80 65 5 0 17 8 28 18 10
9 37 29 59 43 22 15 73 54 113 87 107 87 163 100 307 74z m-1490 -432 c63 -10
178 -20 245 -22 63 -1 251 15 310 27 64 14 144 12 174 -2 29 -15 106 -90 106
-104 0 -4 6 -14 13 -21 18 -20 67 -93 67 -101 0 -5 6 -15 13 -23 6 -8 17 -20
22 -27 6 -7 16 -23 23 -37 6 -14 16 -32 21 -40 13 -20 25 -53 23 -62 -1 -5 1
-8 6 -8 4 0 7 -18 7 -40 0 -22 -3 -40 -7 -40 -5 0 -8 -7 -8 -15 0 -17 -76 -96
-129 -135 -19 -14 -39 -29 -46 -35 -6 -5 -20 -16 -30 -23 -11 -7 -49 -32 -85
-55 -35 -23 -68 -41 -72 -40 -5 2 -8 -1 -8 -6 0 -9 -154 -74 -176 -74 -8 0
-14 -3 -14 -7 0 -3 -10 -6 -22 -7 -13 -1 -39 -4 -58 -8 -51 -9 -180 -14 -180
-6 0 3 -15 7 -33 8 -70 3 -193 39 -224 64 -7 6 -13 9 -13 6 0 -9 -115 59 -205
122 -202 141 -243 198 -216 298 11 42 79 165 127 230 13 17 24 34 24 37 0 3 8
14 18 25 9 10 33 39 52 64 57 74 105 84 275 57z m-1752 -80 c9 -11 17 -23 17
-26 0 -6 181 -368 237 -473 38 -72 38 -72 -37 -112 -47 -25 -75 -46 -121 -91
-15 -16 -32 -28 -37 -28 -17 0 -125 134 -115 144 3 3 2 6 -4 6 -16 0 -111 228
-105 253 1 4 -3 7 -10 7 -6 0 -9 3 -5 6 3 3 -3 26 -13 50 -11 24 -17 44 -14
44 2 0 -3 11 -12 25 -9 14 -13 25 -10 25 4 0 2 8 -3 18 -6 11 -12 31 -15 46
-4 22 1 30 32 49 35 22 110 59 142 70 31 11 56 6 73 -13z m4160 -13 c40 -19
83 -43 97 -54 l24 -21 -23 -68 c-12 -38 -29 -85 -36 -104 -22 -57 -28 -75 -30
-82 -2 -5 -3 -9 -5 -10 -1 -2 -3 -10 -5 -19 -1 -8 -15 -44 -30 -80 -15 -35
-27 -70 -27 -76 -1 -7 -5 -13 -10 -13 -4 0 -8 -7 -8 -15 0 -8 -5 -15 -12 -15
-6 0 -9 -3 -5 -6 3 -4 1 -13 -6 -20 -7 -8 -32 -40 -57 -73 -27 -35 -51 -58
-61 -56 -8 2 -32 19 -51 38 -20 19 -65 52 -100 72 -74 44 -82 53 -64 80 29 45
96 175 90 175 -4 0 -1 8 8 18 15 18 86 160 88 177 1 6 7 17 14 25 7 8 22 33
32 55 48 97 54 105 80 105 14 0 58 -15 97 -33z m-2969 -506 c16 -6 38 -20 50
-31 67 -63 303 -231 356 -253 46 -20 98 -58 116 -85 19 -28 20 -36 10 -64 -14
-40 -46 -101 -56 -108 -4 -3 -13 -16 -20 -29 -7 -14 -17 -30 -21 -35 -5 -6
-36 -47 -70 -91 -33 -44 -67 -86 -76 -92 -9 -7 -14 -13 -10 -13 11 0 -40 -47
-77 -69 -54 -34 -111 -30 -193 13 -62 33 -82 47 -150 105 -13 11 -23 18 -23
17 0 -6 -120 106 -208 194 -47 46 -111 118 -144 160 -32 41 -63 80 -68 87 -24
29 -51 94 -48 114 2 12 12 27 23 33 11 6 23 16 27 21 4 6 8 7 8 2 0 -4 13 -1
30 8 16 8 33 16 37 16 5 1 13 3 18 5 45 14 164 47 184 51 13 2 29 7 34 10 22
13 184 50 212 48 17 -2 43 -8 59 -14z m1781 4 c17 -4 37 -9 45 -12 8 -3 20 -7
25 -8 6 -1 13 -3 18 -5 4 -1 10 -3 15 -5 4 -1 19 -5 33 -9 14 -4 34 -9 45 -11
10 -2 20 -4 22 -5 1 -2 5 -3 10 -4 4 -2 27 -8 52 -15 25 -7 50 -14 55 -16 14
-3 42 -13 113 -42 63 -25 63 -26 59 -63 -8 -86 -183 -296 -431 -515 -235 -208
-351 -236 -463 -111 -66 74 -153 183 -153 191 0 8 -52 78 -65 87 -5 4 -7 8 -2
8 4 0 -4 17 -18 39 -14 21 -28 54 -31 73 -5 30 -1 39 31 71 20 20 41 37 46 37
5 0 38 18 74 40 36 22 69 40 74 40 5 0 11 4 13 8 2 4 41 34 88 67 47 33 94 69
105 80 20 20 82 63 118 82 19 10 67 9 122 -2z m-2572 -161 c17 -21 40 -46 49
-55 9 -10 14 -20 11 -23 -4 -3 -1 -6 5 -6 5 0 19 -15 31 -32 11 -18 28 -42 38
-53 52 -58 123 -155 123 -170 0 -9 -16 -31 -37 -48 -20 -18 -58 -51 -85 -74
-27 -24 -54 -43 -61 -43 -7 0 -24 10 -38 23 -15 12 -42 33 -60 47 -54 40 -184
175 -218 227 -60 91 -54 115 44 181 126 84 147 86 198 26z m3358 15 c16 -11
29 -17 29 -12 0 4 4 3 8 -2 4 -6 23 -22 42 -35 43 -29 65 -51 72 -70 7 -21
-18 -77 -55 -125 -70 -92 -273 -275 -304 -275 -6 0 -25 12 -40 26 -15 14 -48
42 -72 63 -61 50 -71 61 -71 75 0 11 76 116 141 194 13 15 35 44 49 62 103
138 129 151 201 99z m-1593 -270 c17 -10 48 -44 69 -76 85 -133 131 -198 205
-293 43 -56 78 -105 78 -110 0 -6 4 -10 9 -10 9 0 29 -46 37 -87 2 -12 -1 -34
-8 -50 -6 -15 -10 -32 -9 -38 2 -5 0 -7 -4 -3 -4 4 -18 -6 -32 -23 -14 -16
-31 -29 -39 -29 -8 0 -14 -4 -14 -9 0 -10 -161 -85 -220 -102 -158 -44 -316
-43 -449 2 -31 11 -63 21 -72 23 -27 7 -151 76 -183 102 -49 41 -75 91 -70
132 3 20 9 39 15 43 6 3 10 10 8 14 -2 7 126 183 142 195 5 4 121 174 172 254
23 36 54 65 77 74 13 5 77 9 141 10 97 0 122 -3 147 -19z m-1343 -234 c50 -49
113 -108 139 -130 83 -69 86 -72 86 -81 0 -5 -36 -44 -81 -87 -87 -85 -101
-89 -147 -47 -12 11 -22 17 -22 13 0 -4 -4 -3 -8 2 -4 6 -29 28 -57 50 -27 22
-84 75 -127 119 -77 78 -77 79 -62 105 9 14 47 51 85 81 38 30 69 59 69 63 0
23 44 -8 125 -88z m2575 26 c118 -101 117 -94 7 -203 -51 -51 -103 -100 -114
-110 -45 -36 -128 -88 -140 -88 -7 0 -49 36 -93 81 -79 80 -80 81 -62 104 9
14 20 25 25 25 10 0 62 46 180 162 54 53 104 95 111 94 6 -1 45 -30 86 -65z
m-2214 -317 c21 -16 48 -39 61 -51 12 -12 23 -20 23 -17 0 3 6 -1 13 -8 8 -7
33 -29 56 -48 137 -114 142 -122 94 -178 -16 -18 -39 -47 -53 -67 -14 -19 -32
-34 -40 -35 -51 0 -220 109 -312 201 -65 64 -67 68 -57 97 6 17 29 46 52 66
102 85 106 86 163 40z m1757 14 c60 -42 115 -99 120 -125 5 -28 -5 -43 -71
-106 -88 -84 -254 -187 -301 -187 -9 0 -27 17 -41 37 -14 21 -36 49 -51 63
-28 28 -31 69 -8 93 12 12 61 53 184 155 62 52 114 87 133 91 2 1 18 -9 35
-21z m-2018 -181 c12 -24 73 -87 138 -144 63 -54 220 -140 266 -145 13 -2 36
-13 49 -26 24 -21 25 -24 14 -75 -14 -58 -59 -211 -72 -242 -5 -11 -14 -39
-21 -62 -7 -24 -16 -43 -21 -43 -5 0 -8 -6 -7 -12 1 -7 -4 -26 -11 -43 -7 -16
-13 -33 -12 -37 1 -5 -3 -8 -8 -8 -6 0 -10 -5 -10 -10 0 -30 -116 -235 -145
-256 -8 -6 -13 -13 -10 -16 5 -5 -90 -106 -145 -153 -19 -16 -36 -37 -38 -44
-4 -18 -112 -129 -112 -115 0 5 -4 3 -9 -5 -8 -12 -14 -13 -36 -3 -14 7 -24
16 -21 21 4 5 0 11 -6 14 -7 2 -30 -13 -50 -34 -20 -22 -41 -39 -47 -39 -6 0
-11 -4 -11 -8 0 -5 -8 -9 -17 -10 -30 -1 -61 19 -68 45 -7 30 -21 22 -30 -17
-9 -43 -51 -73 -79 -58 -36 19 -93 97 -81 110 3 3 -2 5 -10 5 -8 0 -15 -3 -16
-6 -4 -32 -12 -49 -36 -79 -28 -34 -63 -51 -63 -31 0 6 -4 8 -9 5 -4 -3 -15 2
-24 12 -31 35 -49 97 -50 178 -2 61 -6 85 -19 98 -13 13 -16 28 -13 59 9 73
17 122 23 132 4 6 8 18 9 27 12 75 115 308 174 395 17 23 27 43 24 43 -5 0 4
13 33 45 7 8 10 15 5 15 -4 0 -3 4 2 8 6 4 35 41 65 82 55 76 73 98 123 151
15 16 27 34 27 39 0 6 7 10 15 10 8 0 15 4 15 9 0 11 137 149 192 194 23 17
45 37 51 43 21 20 67 9 82 -19z m2271 8 c6 -8 16 -15 22 -15 6 0 16 -8 21 -17
6 -10 11 -14 11 -10 0 12 230 -221 230 -234 0 -5 5 -7 10 -4 6 3 10 2 10 -4 0
-5 17 -30 38 -54 63 -76 72 -87 65 -87 -4 0 1 -6 11 -13 9 -7 22 -22 29 -33 7
-12 30 -48 52 -80 47 -71 55 -85 111 -191 23 -46 41 -83 38 -83 -2 0 2 -10 10
-22 18 -30 78 -209 72 -216 -3 -2 -1 -13 5 -24 6 -10 12 -50 14 -88 3 -56 1
-70 -11 -70 -8 0 -14 -3 -15 -7 0 -5 -2 -44 -3 -88 -2 -44 -4 -81 -6 -82 -1
-2 -3 -6 -4 -10 -9 -37 -23 -62 -48 -86 l-30 -28 -31 19 c-19 11 -37 33 -46
57 -8 22 -19 42 -23 43 -5 2 -5 9 -2 14 4 6 3 9 -2 5 -5 -3 -18 -23 -29 -44
-22 -42 -72 -93 -88 -90 -19 4 -43 31 -56 65 -16 39 -22 40 -44 3 -12 -21 -24
-29 -40 -27 -39 6 -67 18 -61 27 3 5 0 9 -6 9 -15 0 -40 25 -40 40 0 6 -4 8
-10 5 -5 -3 -10 -1 -10 6 0 7 -10 0 -23 -14 -34 -41 -37 -40 -122 39 -25 23
-45 47 -45 53 0 6 -4 11 -10 11 -5 0 -9 3 -9 8 3 17 -1 35 -7 29 -7 -7 -41 22
-100 83 -72 75 -84 89 -84 100 0 5 -4 10 -10 10 -5 0 -10 5 -10 11 0 6 -13 29
-29 52 -35 51 -121 229 -121 250 0 9 -6 22 -14 30 -8 7 -16 25 -18 38 -1 13
-5 26 -8 29 -6 5 -61 178 -76 235 -4 17 -9 37 -12 45 -15 50 6 100 43 100 8 0
32 7 53 17 20 9 39 17 42 18 32 8 198 119 220 146 3 3 26 24 52 47 26 22 44
43 41 46 -4 3 -1 6 5 6 7 0 12 9 12 19 0 32 64 36 86 6z m-1578 -156 c2 -5 10
-9 17 -9 8 0 26 -5 42 -12 15 -6 30 -12 33 -13 3 0 28 -8 55 -18 28 -9 62 -18
78 -19 15 -1 27 -5 27 -9 0 -4 15 -10 34 -13 18 -4 44 -16 57 -27 22 -19 24
-28 24 -123 0 -87 -3 -105 -20 -126 -18 -22 -46 -29 -87 -21 -5 0 -10 1 -13 1
-3 0 -20 6 -39 14 -19 8 -37 12 -40 8 -3 -3 -6 -1 -6 4 0 6 -17 16 -37 23 -21
8 -73 36 -116 63 -43 26 -82 48 -87 48 -5 0 -10 3 -12 8 -1 4 -27 25 -55 46
-31 21 -53 45 -53 56 0 18 54 90 92 123 17 14 31 17 62 11 23 -3 43 -10 44
-15z m905 1 c14 -11 42 -43 62 -71 36 -48 37 -51 20 -69 -27 -29 -180 -131
-269 -178 -84 -45 -187 -81 -223 -78 -25 2 -65 35 -58 47 3 4 1 10 -3 13 -10
6 -9 161 1 192 8 22 95 66 127 63 3 0 22 7 43 16 20 8 37 12 37 9 0 -3 11 1
25 10 14 9 25 14 25 11 0 -2 24 5 53 16 110 45 125 46 160 19z"/>
<path d="M4438 8593 c-32 -8 7 -62 45 -63 44 0 91 58 50 61 -56 5 -80 5 -95 2z"/>
<path d="M4356 8498 c-46 -62 -106 -183 -106 -216 0 -18 -6 -35 -13 -38 -15
-6 -21 -54 -6 -54 5 0 7 -4 4 -10 -3 -5 1 -10 10 -10 9 0 14 -4 11 -8 -6 -10
93 -48 114 -43 27 5 67 62 85 120 18 61 26 191 12 191 -5 0 -3 8 4 17 10 11
10 14 2 9 -9 -5 -13 0 -13 17 0 25 -36 57 -64 57 -8 0 -26 -15 -40 -32z"/>
<path d="M4536 8508 c-28 -26 -36 -55 -36 -143 0 -95 5 -115 61 -215 19 -33
64 -37 121 -10 58 27 77 59 58 97 -8 16 -14 39 -14 53 0 14 -3 27 -6 30 -3 3
-16 28 -30 55 -13 28 -27 52 -30 55 -3 3 -11 17 -19 32 -19 38 -49 68 -66 68
-8 0 -25 -10 -39 -22z"/>
<path d="M4161 8184 c-11 -13 -18 -24 -16 -24 3 0 1 -9 -5 -19 -21 -40 9 -58
62 -36 22 9 29 42 12 56 -8 6 -12 14 -10 18 2 3 -2 11 -9 18 -10 9 -17 6 -34
-13z"/>
<path d="M4775 8194 c-5 -10 -9 -21 -10 -24 -1 -3 -5 -13 -10 -23 -10 -24 16
-51 50 -53 14 0 25 2 26 5 0 3 2 15 4 27 3 12 -7 34 -24 54 -25 31 -28 32 -36
14z"/>
<path d="M4484 8172 c-5 -4 -20 -21 -32 -39 -47 -66 -22 -189 35 -178 10 2 21
4 25 4 16 2 35 58 33 97 -3 39 -29 109 -44 119 -4 2 -11 1 -17 -3z"/>
<path d="M4275 8091 c-3 -3 -18 -7 -32 -9 -15 -2 -35 -8 -45 -13 -10 -5 -22
-8 -26 -5 -10 6 -37 -15 -51 -42 -18 -35 -17 -117 4 -222 4 -19 7 -43 7 -53
-1 -31 106 -70 187 -68 19 1 105 71 87 71 -3 0 8 14 24 30 17 17 30 40 30 50
0 11 5 20 12 20 9 0 9 3 0 12 -7 7 -12 20 -12 30 0 10 -4 18 -10 18 -5 0 -9 3
-8 8 4 11 -26 72 -35 72 -5 0 -6 4 -3 9 7 11 -50 91 -67 92 -6 0 -22 2 -35 3
-12 2 -24 0 -27 -3z"/>
<path d="M4620 8079 c-18 -11 -30 -23 -26 -26 3 -3 0 -11 -7 -17 -7 -6 -24
-36 -37 -66 -14 -30 -29 -58 -34 -61 -5 -4 -5 -12 -2 -18 4 -6 3 -11 -3 -11
-12 0 -3 -64 10 -68 5 -2 9 -8 9 -14 0 -5 16 -26 35 -46 19 -20 38 -45 41 -55
3 -9 10 -15 15 -11 6 3 16 0 24 -6 8 -6 18 -9 23 -6 5 3 27 8 48 11 47 7 124
34 123 43 -1 4 0 9 1 12 1 3 4 25 6 50 3 25 8 59 13 75 8 35 6 120 -4 151 -9
30 -70 59 -144 70 -20 3 -41 7 -47 9 -6 2 -26 -6 -44 -16z"/>
<path d="M4908 7963 c0 -5 -2 -19 -4 -33 -1 -14 -5 -35 -8 -48 -3 -13 -6 -43
-7 -68 -2 -24 -6 -44 -10 -44 -13 0 14 -74 39 -108 23 -31 25 -32 41 -16 25
27 17 152 -19 258 -20 62 -28 76 -32 59z"/>
<path d="M4053 7953 c-7 -3 -13 -16 -13 -29 0 -13 -5 -24 -12 -24 -6 0 -9 -2
-6 -6 3 -3 0 -25 -8 -50 -7 -24 -10 -44 -7 -44 3 0 0 -6 -6 -14 -8 -10 -9 -16
-1 -21 6 -3 8 -11 4 -16 -10 -16 -11 -70 -2 -75 5 -3 6 -9 3 -14 -3 -4 2 -13
9 -19 11 -10 19 -7 35 10 19 21 53 103 46 111 -5 5 -12 50 -20 128 -8 74 -6
69 -22 63z"/>
<path d="M4426 7713 c-31 -32 -56 -65 -57 -73 0 -8 -3 -33 -5 -55 -9 -100 -5
-186 11 -218 9 -19 38 -53 66 -75 l50 -41 45 42 c47 43 78 90 67 101 -4 3 -2
6 3 6 10 0 8 126 -5 247 -1 12 -104 123 -114 123 -3 0 -31 -26 -61 -57z"/>
<path d="M4106 7641 c-55 -45 -65 -61 -57 -84 8 -21 97 -75 184 -113 20 -9 37
-20 37 -24 0 -10 26 -7 37 4 9 8 16 145 11 191 -2 17 -56 35 -105 35 -18 0
-33 4 -33 8 0 17 -45 6 -74 -17z"/>
<path d="M4799 7660 c-8 -5 -38 -11 -68 -14 -29 -3 -59 -10 -66 -16 -15 -13
-15 -175 1 -203 9 -16 16 -14 84 20 41 21 77 41 80 44 3 3 20 11 38 18 17 8
32 18 32 23 0 5 4 7 9 4 13 -8 22 34 11 54 -10 19 -79 74 -96 76 -6 1 -17 -2
-25 -6z"/>
<path d="M4002 7497 c-13 -6 -21 -16 -18 -23 3 -8 2 -15 -2 -18 -5 -3 -9 -37
-10 -77 -2 -41 0 -70 4 -66 4 4 14 1 23 -7 27 -25 105 -53 136 -50 16 2 49 17
72 34 24 16 48 30 53 30 5 0 13 8 18 17 8 13 4 21 -13 35 -13 10 -28 18 -34
18 -5 0 -14 8 -20 18 -5 9 -12 16 -15 15 -12 -3 -46 10 -46 18 0 5 -6 9 -14 9
-8 0 -16 3 -18 8 -1 4 -23 16 -48 28 -35 17 -50 19 -68 11z"/>
<path d="M4910 7491 c0 -5 -16 -15 -35 -21 -19 -6 -35 -16 -35 -21 0 -5 -4 -9
-10 -9 -5 0 -31 -13 -59 -29 -27 -16 -51 -28 -53 -25 -3 2 -11 -7 -18 -21 -15
-27 -8 -37 50 -67 14 -7 30 -19 36 -27 11 -15 80 -22 104 -11 94 44 112 61
113 108 0 41 -10 109 -19 123 -7 12 -74 12 -74 0z"/>
<path d="M4310 7309 c0 -5 -5 -9 -11 -9 -6 0 -16 -6 -23 -12 -8 -7 -23 -20
-35 -28 -11 -8 -21 -20 -21 -27 0 -7 -4 -13 -9 -13 -15 0 -38 -69 -33 -100 2
-15 11 -31 21 -34 9 -4 29 -14 45 -22 40 -23 145 -22 180 1 36 24 48 48 48
101 0 49 -24 86 -81 124 -35 23 -81 34 -81 19z"/>
<path d="M4602 7306 c-43 -36 -103 -98 -99 -103 3 -2 1 -18 -3 -34 -5 -17 -5
-29 0 -29 5 0 7 -6 4 -13 -5 -15 42 -70 66 -76 28 -7 127 -2 155 9 41 16 86
68 76 88 -5 9 -14 28 -20 42 -16 34 -77 101 -85 93 -3 -3 -6 -2 -6 4 0 22 -67
37 -88 19z"/>
<path d="M3939 7254 c-11 -30 -12 -104 -1 -104 4 0 18 -10 32 -22 29 -27 42
-28 90 -8 50 21 79 48 73 70 -3 11 -8 19 -12 18 -7 -2 -63 24 -71 32 -13 13
-57 34 -78 36 -17 2 -26 -5 -33 -22z"/>
<path d="M4970 7269 c0 -3 -12 -11 -27 -18 -16 -7 -47 -24 -71 -37 -35 -21
-41 -28 -31 -40 6 -8 8 -14 3 -14 -9 0 27 -23 54 -35 55 -23 76 -22 118 10 32
24 37 55 19 118 -6 22 -12 27 -36 25 -16 -1 -29 -5 -29 -9z"/>
<path d="M3915 7068 c1 -30 8 -46 25 -60 28 -23 40 -14 44 34 4 39 -14 62 -50
65 -18 1 -20 -4 -19 -39z"/>
<path d="M4094 7101 c-5 -5 -26 -14 -47 -21 -33 -10 -37 -15 -34 -38 7 -51 27
-80 53 -77 13 1 24 -2 24 -8 0 -5 7 -4 15 3 8 7 15 10 15 6 0 -9 63 24 72 38
11 16 10 19 -20 52 -35 38 -66 56 -78 45z"/>
<path d="M4820 7077 c-38 -37 -51 -60 -42 -74 20 -30 117 -52 152 -33 18 10
35 54 31 80 -3 17 -33 40 -43 34 -5 -3 -8 -1 -8 5 0 6 -7 8 -15 5 -8 -4 -15
-2 -15 3 0 19 -30 9 -60 -20z"/>
<path d="M5004 7094 c-18 -12 -21 -22 -17 -52 3 -20 10 -40 16 -44 14 -8 49
10 42 22 -3 5 -2 11 3 14 4 2 8 19 7 38 0 38 -18 45 -51 22z"/>
<path d="M4440 7039 c0 -6 -5 -7 -10 -4 -16 10 -80 -43 -80 -65 0 -17 10 -18
133 -18 72 0 135 2 139 5 16 9 -16 51 -50 68 -41 20 -132 29 -132 14z"/>
<path d="M4237 7020 c-26 -26 -27 -70 -1 -80 24 -9 80 14 82 33 0 7 2 21 4 32
2 12 -2 19 -9 18 -7 -2 -13 2 -13 9 0 9 -3 9 -12 0 -7 -7 -16 -8 -22 -3 -7 5
-18 1 -29 -9z"/>
<path d="M4654 7024 c-20 -8 -2 -55 28 -74 31 -19 74 -16 82 6 3 8 2 14 -3 14
-5 0 -11 14 -14 30 -6 27 -10 30 -44 29 -21 0 -43 -3 -49 -5z"/>
<path d="M3924 6946 c-23 -33 -18 -65 12 -72 31 -8 74 10 74 31 0 8 4 15 9 15
11 0 9 26 -3 37 -17 17 -77 10 -92 -11z"/>
<path d="M4953 6954 c-17 -45 31 -93 81 -80 30 7 35 40 12 72 -17 23 -85 29
-93 8z"/>
<path d="M4105 6938 c-33 -13 -55 -31 -55 -47 0 -6 5 -11 10 -11 6 0 10 5 10
12 0 6 3 9 6 5 3 -3 25 3 49 13 24 10 46 15 50 12 4 -4 6 0 3 8 -6 19 -34 22
-73 8z"/>
<path d="M4795 6941 c-3 -6 2 -14 12 -18 10 -3 39 -14 66 -24 51 -20 65 -9 27
24 -11 9 -20 14 -20 11 0 -4 -6 -2 -12 3 -19 13 -65 16 -73 4z"/>
<path d="M1805 7342 c-13 -31 -11 -72 5 -78 21 -9 100 -10 101 -1 5 25 4 35
-1 57 -5 20 -13 24 -41 25 -19 0 -39 4 -45 8 -7 4 -15 -1 -19 -11z"/>
<path d="M1589 7339 c-6 -4 -6 -15 0 -32 6 -15 7 -27 3 -28 -6 0 32 -19 51
-24 4 -2 8 -3 10 -4 9 -8 63 -8 77 -1 20 10 31 55 21 80 -5 12 -22 15 -79 15
-40 0 -78 -2 -83 -6z"/>
<path d="M1960 7337 c0 -4 -6 -5 -12 -1 -10 6 -10 4 -2 -7 6 -8 10 -23 8 -34
-3 -21 14 -48 26 -40 4 2 31 7 61 9 30 3 61 7 69 9 22 5 83 38 78 43 -7 6 -51
12 -101 13 -32 1 -46 5 -41 12 4 8 0 8 -15 0 -11 -7 -21 -8 -21 -3 0 4 -11 8
-25 8 -14 0 -25 -4 -25 -9z"/>
<path d="M1426 7323 c-2 -3 -15 -6 -28 -8 -12 -2 -36 -7 -53 -11 -16 -4 -38
-7 -47 -8 -10 0 -18 -4 -18 -9 0 -4 -3 -6 -7 -4 -13 8 -30 -17 -24 -33 8 -20
21 -22 131 -20 120 2 120 2 120 12 0 5 4 7 10 3 13 -8 50 26 50 46 0 28 -25
40 -79 38 -28 -1 -53 -4 -55 -6z"/>
<path d="M2236 7301 c-6 -9 30 -51 43 -51 5 0 16 9 24 20 8 11 17 18 20 15 4
-3 3 1 -3 7 -10 12 -78 20 -84 9z"/>
<path d="M2380 7279 c0 -6 -4 -7 -10 -4 -24 15 -6 -14 36 -58 l45 -48 33 33
c32 32 33 46 5 52 -8 2 -21 5 -29 8 -71 24 -80 25 -80 17z"/>
<path d="M2158 7246 c-14 -10 -16 -19 -8 -45 10 -36 10 -36 10 -55 0 -17 71
-30 81 -14 4 6 4 21 0 32 -5 12 -7 29 -6 39 2 9 -1 17 -6 17 -6 0 -7 5 -3 11
15 25 -39 37 -68 15z"/>
<path d="M1550 7240 c0 -5 -7 -10 -16 -12 -13 -2 -8 -11 19 -40 32 -35 36 -36
61 -23 14 8 26 12 26 9 0 -3 6 1 14 8 18 17 12 25 -32 44 -48 20 -72 25 -72
14z"/>
<path d="M2000 7222 c0 -6 -6 -9 -12 -7 -17 6 -32 -5 -46 -32 -13 -23 -8 -46
15 -72 25 -28 86 -126 86 -137 1 -20 61 -6 62 14 1 4 5 30 10 57 4 28 7 55 5
60 -1 6 -4 29 -5 52 -1 24 -7 49 -14 56 -11 14 -56 15 -68 3 -4 -3 -12 -1 -20
5 -9 8 -13 8 -13 1z"/>
<path d="M2306 7215 c-3 -8 -12 -15 -20 -15 -11 0 -13 -6 -6 -29 5 -17 4 -33
-2 -39 -6 -6 -3 -11 10 -14 12 -4 33 7 57 28 l39 33 -24 26 c-27 28 -45 32
-54 10z"/>
<path d="M2540 7202 c-51 -56 -53 -60 -37 -77 9 -8 19 -15 23 -15 4 0 16 -10
28 -23 32 -34 58 -28 139 35 39 31 47 48 22 48 -8 0 -15 5 -15 12 0 6 -3 9 -6
6 -3 -3 -32 5 -64 18 -33 13 -61 24 -62 24 -2 -1 -14 -13 -28 -28z"/>
<path d="M1747 7194 c-9 -13 -20 -37 -23 -54 -4 -16 -10 -30 -15 -30 -5 0 -8
-3 -8 -7 1 -5 0 -10 -1 -13 -1 -3 -3 -12 -5 -21 -1 -9 -6 -26 -10 -37 -6 -20
-4 -21 27 -10 18 6 41 20 52 30 11 10 23 18 28 18 15 0 108 100 108 115 0 8 0
18 0 23 0 4 -30 8 -68 8 -59 1 -69 -1 -85 -22z"/>
<path d="M1303 7174 c-3 -9 -1 -19 4 -23 6 -3 23 -31 39 -61 28 -53 49 -67 79
-49 6 4 26 12 45 18 47 15 74 54 64 89 -4 15 -7 30 -6 33 0 3 -49 6 -109 7
-92 1 -111 -1 -116 -14z"/>
<path d="M1197 7159 c-6 -4 -29 -9 -49 -13 -21 -4 -38 -10 -39 -14 0 -4 -2
-24 -5 -45 -2 -20 -8 -46 -14 -57 -17 -31 -3 -43 39 -35 20 4 42 8 49 8 6 0
12 4 12 9 0 4 3 7 8 6 27 -8 80 56 76 92 -5 42 -17 60 -40 58 -14 -1 -30 -5
-37 -9z"/>
<path d="M1660 7141 c0 -8 -3 -11 -7 -8 -3 4 -12 2 -20 -4 -7 -6 -13 -8 -13
-4 0 5 -9 0 -20 -10 -26 -23 -25 -27 7 -59 29 -29 41 -25 49 20 3 15 9 33 14
39 5 6 5 17 0 25 -8 13 -10 13 -10 1z"/>
<path d="M2379 7120 c-19 -16 -38 -30 -43 -30 -5 0 -17 -7 -27 -16 -16 -14
-16 -19 -3 -50 8 -19 11 -34 7 -34 -5 0 -2 -4 6 -9 27 -17 115 61 127 112 5
26 -8 57 -26 57 -4 0 -23 -13 -41 -30z"/>
<path d="M2771 7131 c-13 -8 -6 -57 10 -67 5 -3 9 -16 9 -29 0 -33 8 -35 68
-15 66 22 72 28 47 46 -11 8 -27 20 -35 27 -9 8 -21 12 -28 9 -7 -2 -12 0 -12
6 0 14 -45 31 -59 23z"/>
<path d="M971 7099 c-29 -10 -60 -24 -67 -30 -8 -6 -14 -9 -14 -5 0 4 -14 -1
-31 -10 -23 -11 -30 -21 -26 -35 3 -10 1 -22 -4 -25 -5 -3 -8 -11 -7 -17 1 -7
-6 -26 -15 -44 -22 -41 -22 -57 1 -48 9 4 22 8 27 9 117 29 191 85 220 165 23
67 10 74 -84 40z"/>
<path d="M1886 7095 c-8 -8 -18 -15 -23 -15 -4 0 -14 -9 -21 -20 -10 -17 -9
-26 4 -53 9 -17 22 -35 27 -39 6 -3 29 12 51 35 23 23 35 42 28 45 -7 2 -10 8
-6 13 3 5 1 9 -5 9 -5 0 -13 9 -16 20 -8 24 -18 25 -39 5z"/>
<path d="M2167 7074 c-9 -17 -14 -34 -12 -36 3 -3 -2 -27 -11 -54 -17 -54 -26
-99 -17 -90 3 3 24 -5 47 -16 22 -12 47 -23 54 -24 35 -6 54 134 24 186 -9 16
-20 26 -24 24 -5 -3 -8 0 -8 5 0 6 -6 11 -14 11 -8 0 -16 6 -19 13 -2 6 -11
-2 -20 -19z"/>
<path d="M2720 7082 c0 -7 -5 -10 -11 -6 -6 3 -14 1 -18 -5 -4 -6 -27 -22 -50
-35 -24 -12 -42 -26 -41 -31 1 -4 -4 -12 -12 -16 -11 -7 -11 -9 1 -9 10 0 11
-3 3 -13 -9 -10 -3 -24 21 -58 19 -27 36 -42 42 -38 58 46 105 112 90 127 -2
3 0 11 6 19 9 9 8 13 0 13 -6 0 -11 8 -11 18 0 21 -20 54 -20 34z"/>
<path d="M2481 7067 c-6 -8 -8 -17 -4 -20 3 -4 1 -7 -5 -7 -7 0 -12 -6 -12
-14 0 -8 -5 -16 -11 -18 -7 -2 -9 -12 -5 -23 5 -16 16 -20 54 -22 l49 -1 0 34
c0 19 -5 34 -10 34 -6 0 -8 3 -4 6 5 5 -27 44 -37 44 -2 0 -9 -6 -15 -13z"/>
<path d="M1519 7034 c-5 -7 -32 -18 -59 -24 -38 -9 -50 -16 -50 -31 0 -10 3
-19 8 -19 4 0 27 -32 52 -70 25 -38 51 -71 59 -75 18 -7 37 10 68 62 19 33 24
52 20 79 -11 65 -70 112 -98 78z"/>
<path d="M1300 7019 c-14 -12 -40 -28 -57 -35 -31 -13 -32 -17 -29 -57 2 -23
5 -42 6 -42 1 0 3 -10 4 -22 2 -13 5 -25 8 -28 6 -7 81 26 86 38 2 4 12 7 22
7 10 0 22 5 25 10 4 6 10 8 15 5 4 -3 11 3 14 12 4 9 -4 33 -20 57 -15 22 -27
46 -27 53 0 7 -4 10 -8 7 -4 -2 -9 1 -11 7 -2 6 -14 1 -28 -12z"/>
<path d="M760 7005 c-14 -8 -40 -22 -57 -31 -18 -10 -33 -21 -33 -26 0 -4 -9
-8 -21 -8 -11 0 -17 -4 -14 -10 3 -5 1 -10 -4 -10 -6 0 -13 0 -16 0 -2 0 -15
-10 -28 -23 -13 -12 -36 -32 -52 -44 -27 -21 -28 -23 -12 -41 9 -10 17 -24 17
-30 0 -20 46 -18 70 3 8 8 18 13 21 12 3 -1 34 26 68 61 35 34 60 62 55 62 -4
0 0 8 9 18 12 13 32 83 24 82 -1 0 -13 -7 -27 -15z"/>
<path d="M2931 6986 c-22 -36 -27 -66 -11 -66 6 0 10 4 10 9 0 4 12 8 28 9 74
1 95 34 41 65 -41 23 -44 22 -68 -17z"/>
<path d="M1734 6988 c-3 -5 -13 -7 -21 -4 -8 3 -12 2 -9 -3 3 -5 -2 -11 -12
-13 -10 -3 -22 -22 -29 -50 -8 -28 -29 -64 -58 -96 l-45 -50 29 -30 c20 -19
27 -33 20 -41 -6 -8 -6 -8 3 -1 18 15 31 12 25 -5 -4 -8 -1 -17 5 -21 7 -4 8
-3 4 4 -4 7 -1 12 8 12 8 0 18 -5 22 -12 5 -7 3 -8 -6 -3 -9 5 -11 4 -6 -3 11
-18 25 -14 25 6 0 23 5 44 14 60 5 6 6 12 3 12 -3 0 -1 12 5 28 12 30 20 61
21 80 1 6 6 12 11 12 6 0 7 3 4 6 -3 4 -2 15 3 25 6 10 11 29 12 43 1 15 6 26
11 26 5 0 7 5 5 12 -5 14 -36 19 -44 6z"/>
<path d="M1935 6956 c-38 -38 -44 -48 -36 -68 5 -13 17 -23 27 -23 11 -1 25
-4 32 -8 6 -5 12 -6 12 -3 0 3 11 1 24 -4 20 -7 28 -4 50 23 27 32 35 77 15
77 -7 0 -22 11 -35 25 -13 14 -28 25 -33 25 -6 0 -31 -20 -56 -44z"/>
<path d="M2828 6969 c-7 -4 -16 -5 -20 -3 -4 3 -8 0 -8 -6 0 -6 -4 -8 -10 -5
-16 10 -12 -38 6 -63 8 -12 22 -22 31 -22 9 0 13 3 10 6 -3 4 -1 16 5 28 7 11
11 24 10 29 -1 4 3 7 10 7 6 0 8 3 5 7 -4 3 -3 11 3 17 10 13 -23 17 -42 5z"/>
<path d="M1812 6958 c-7 -7 -12 -20 -12 -30 0 -10 -4 -18 -10 -18 -5 0 -9 -3
-8 -7 3 -12 -28 -107 -46 -140 -8 -17 -12 -33 -9 -37 4 -3 1 -6 -5 -6 -6 0 -9
-7 -6 -15 4 -8 1 -15 -5 -15 -6 0 -11 -5 -11 -11 0 -5 4 -8 9 -4 5 3 11 -3 13
-12 4 -15 14 -9 51 30 26 26 54 64 63 85 19 45 27 109 14 117 -5 3 -7 12 -4
20 3 8 -1 23 -8 34 -11 16 -17 18 -26 9z"/>
<path d="M1092 6941 c-18 -16 -25 -111 -9 -111 5 0 6 -4 3 -9 -3 -4 1 -17 9
-27 8 -10 15 -14 15 -7 0 6 11 10 24 9 42 -5 59 17 50 66 -10 58 -11 60 -12
80 -2 22 -56 21 -80 -1z"/>
<path d="M2360 6951 c0 -3 -13 -13 -28 -22 -17 -9 -32 -30 -39 -52 l-11 -36
59 2 c39 1 59 6 60 14 5 46 3 90 -3 86 -5 -2 -8 0 -8 5 0 5 -7 9 -15 9 -8 0
-15 -3 -15 -6z"/>
<path d="M1016 6931 c-4 -6 -11 -9 -16 -6 -4 3 -10 -2 -14 -10 -3 -8 -12 -15
-21 -15 -8 0 -15 -4 -15 -10 0 -5 -3 -9 -7 -8 -8 1 -19 -2 -68 -21 -11 -5 -32
-7 -47 -7 -14 1 -24 -2 -22 -6 3 -4 -4 -8 -15 -8 -25 0 -27 -22 -5 -44 8 -9
12 -16 8 -16 -3 0 -1 -6 5 -13 9 -12 15 -36 20 -88 2 -12 61 -19 84 -10 20 9
55 39 83 74 6 7 17 31 25 53 14 42 14 43 23 89 6 33 -7 65 -18 46z"/>
<path d="M2443 6915 c-3 -8 -3 -21 0 -29 3 -7 0 -19 -6 -25 -8 -8 -8 -11 2
-11 7 0 9 -4 6 -10 -3 -5 -1 -19 5 -30 12 -23 15 -61 6 -98 -5 -22 -3 -23 32
-18 126 19 133 24 128 87 -5 58 -38 113 -77 129 -44 19 -89 21 -96 5z"/>
<path d="M3035 6913 c-12 -8 -15 -20 -12 -36 6 -20 12 -23 57 -23 27 0 51 5
54 11 5 13 -29 56 -38 48 -3 -4 -6 -1 -6 5 0 14 -34 11 -55 -5z"/>
<path d="M2926 6892 c-44 -4 -62 -18 -72 -57 -5 -21 -4 -26 7 -22 8 3 34 11
57 18 43 12 57 26 50 51 -2 9 -16 12 -42 10z"/>
<path d="M1367 6849 c-26 -16 -51 -29 -55 -30 -4 -1 -22 -9 -40 -17 -23 -11
-31 -21 -26 -31 3 -9 7 -21 7 -28 0 -6 11 -24 23 -40 20 -25 25 -27 45 -15 16
10 24 11 29 2 5 -8 11 -6 20 5 7 9 19 14 26 11 8 -3 13 0 11 7 -1 7 4 11 11
10 6 -2 12 2 12 8 0 6 7 9 15 5 8 -3 15 -1 15 4 0 6 6 10 14 10 7 0 19 7 26
15 11 13 8 21 -18 47 -18 17 -32 34 -32 39 0 4 -8 12 -17 17 -13 7 -31 1 -66
-19z"/>
<path d="M2709 6863 c-9 -9 -26 -24 -38 -35 -16 -14 -19 -23 -12 -36 6 -10 6
-23 0 -34 -6 -10 -8 -22 -5 -27 3 -4 1 -22 -4 -40 -10 -37 4 -41 41 -11 69 57
88 90 83 149 -4 49 -33 64 -65 34z"/>
<path d="M2071 6844 c-12 -14 -20 -32 -18 -39 6 -14 57 -27 57 -14 0 7 39 4
66 -5 17 -6 35 9 29 25 -5 12 -90 59 -107 59 -2 0 -15 -12 -27 -26z"/>
<path d="M1872 6768 c-16 -35 -38 -73 -48 -85 -57 -65 -66 -83 -44 -83 6 0 10
-6 10 -14 0 -18 34 -30 63 -22 19 5 61 42 122 108 8 9 15 21 15 26 0 6 5 12
10 14 20 6 20 68 0 88 -10 10 -21 16 -24 13 -2 -3 -11 -1 -18 3 -39 25 -55 16
-86 -48z"/>
<path d="M3156 6814 c-6 -17 42 -64 59 -58 14 6 9 34 -5 34 -5 0 -11 8 -14 18
-7 21 -33 25 -40 6z"/>
<path d="M710 6811 c0 -5 -17 -20 -37 -32 -21 -13 -40 -26 -43 -29 -3 -4 -14
-12 -25 -18 -14 -7 -20 -20 -19 -43 1 -37 25 -59 65 -59 15 0 30 -4 34 -9 3
-5 16 1 30 15 13 13 28 24 34 24 23 0 32 66 14 98 -8 12 -10 22 -7 22 4 0 -3
9 -16 20 -26 22 -30 24 -30 11z"/>
<path d="M2980 6810 c0 -6 -11 -10 -24 -10 -19 0 -23 -4 -19 -20 7 -27 25 -25
52 4 19 20 20 24 7 29 -9 4 -16 2 -16 -3z"/>
<path d="M3056 6785 c-20 -14 -41 -25 -47 -25 -6 0 -8 -4 -5 -9 4 -5 1 -11 -5
-13 -7 -2 -4 -15 9 -37 11 -18 23 -28 26 -22 4 5 14 7 23 4 11 -4 14 -3 9 5
-4 7 -1 12 8 12 9 0 16 5 16 11 0 5 4 8 8 5 12 -7 29 26 25 49 -2 11 -5 26 -5
33 -2 19 -21 15 -62 -13z"/>
<path d="M2243 6781 c-5 -9 -9 -35 -8 -58 1 -24 -2 -43 -6 -43 -4 0 -6 -8 -5
-17 2 -10 -10 -39 -25 -65 -16 -27 -26 -48 -23 -48 2 0 0 -9 -6 -19 -14 -28
20 -37 59 -16 17 8 32 14 33 13 4 -3 62 48 95 82 41 43 59 130 34 168 -12 20
-21 23 -76 21 -45 -1 -65 -7 -72 -18z"/>
<path d="M414 6751 c-34 -32 -39 -41 -31 -60 6 -11 16 -21 24 -21 12 0 17 -12
14 -32 0 -5 6 -8 14 -8 8 0 15 -4 15 -9 0 -6 11 -7 28 -1 15 4 39 11 54 14 24
5 26 9 18 34 -4 15 -9 34 -11 42 -2 8 -8 20 -14 26 -5 6 -17 21 -25 33 -21 30
-39 26 -86 -18z"/>
<path d="M2847 6770 c-57 -17 -75 -76 -32 -104 34 -22 52 -20 71 9 20 30 26
87 10 97 -13 9 -12 9 -49 -2z"/>
<path d="M1143 6763 c-13 -2 -23 -9 -23 -14 0 -6 -5 -7 -12 -3 -14 9 -4 -9 36
-61 35 -47 50 -58 54 -45 2 6 8 8 13 4 5 -3 9 0 9 6 0 6 4 9 9 5 14 -8 24 14
13 28 -5 7 -15 29 -21 50 -13 38 -21 41 -78 30z"/>
<path d="M1034 6751 c6 -10 -77 -99 -108 -116 -15 -9 -17 -15 -8 -31 8 -15 20
-20 49 -19 21 1 44 4 51 9 7 4 12 5 12 2 0 -2 14 -1 30 4 21 6 30 5 30 -3 0
-7 6 -4 14 5 9 12 16 14 23 7 20 -20 9 29 -12 53 -11 13 -28 40 -38 61 -10 20
-25 37 -33 37 -8 0 -13 -4 -10 -9z"/>
<path d="M2110 6748 c0 -4 -6 -5 -14 -2 -22 8 -56 -14 -56 -36 0 -11 -4 -20
-9 -20 -5 0 -13 -9 -16 -20 -4 -11 -28 -42 -55 -70 -67 -68 -97 -119 -79 -131
8 -5 23 -7 34 -4 11 3 25 7 31 8 7 2 19 9 28 16 9 7 16 10 16 6 0 -4 16 5 35
19 19 15 35 23 35 19 0 -4 5 0 11 10 5 9 15 17 20 17 6 0 16 6 24 13 31 29 54
45 58 40 3 -2 8 5 12 16 3 12 11 21 16 21 6 0 8 4 4 9 -3 5 -1 12 3 15 12 7 3
53 -12 65 -14 11 -86 19 -86 9z"/>
<path d="M1465 6717 c-16 -6 -32 -13 -34 -14 -3 -2 -6 -27 -7 -56 -3 -59 -6
-74 -30 -150 -9 -30 -14 -62 -11 -72 6 -15 10 -14 45 5 21 12 52 35 69 50 17
16 33 27 35 25 10 -10 70 96 71 127 1 18 6 36 11 39 5 4 -1 10 -13 14 -17 5
-20 11 -15 28 6 19 5 20 -10 8 -10 -9 -16 -10 -16 -2 0 14 -55 13 -95 -2z"/>
<path d="M3152 6704 c-30 -21 -28 -37 8 -68 26 -21 34 -24 50 -14 24 15 57 75
47 85 -12 11 -37 12 -37 2 0 -6 -8 -6 -19 1 -25 13 -22 13 -49 -6z"/>
<path d="M1351 6670 c-19 -16 -37 -28 -40 -27 -3 1 -15 -4 -26 -10 -11 -6 -23
-11 -27 -12 -5 -1 -9 -1 -10 -2 -2 0 -11 -2 -21 -4 -25 -5 -24 -3 -31 -60 -19
-144 9 -160 115 -66 59 53 67 70 73 164 2 26 2 47 2 47 -1 -1 -16 -14 -35 -30z"/>
<path d="M2935 6690 c-3 -5 -3 -14 0 -20 3 -5 2 -10 -4 -10 -6 0 -15 -9 -21
-20 -15 -28 15 -76 37 -58 23 18 35 58 28 90 -7 28 -28 37 -40 18z"/>
<path d="M330 6663 c0 -5 -15 -25 -33 -45 -60 -68 -80 -93 -76 -95 2 -1 -3
-10 -11 -20 -8 -10 -29 -45 -45 -78 -17 -33 -32 -62 -35 -65 -3 -3 -6 -16 -6
-28 -1 -21 2 -23 25 -18 43 10 45 11 61 21 16 11 28 18 87 54 22 14 56 47 77
75 33 44 37 56 35 102 -1 29 -6 51 -11 48 -4 -3 -8 -1 -8 5 0 12 -40 51 -52
51 -4 0 -8 -3 -8 -7z"/>
<path d="M2507 6654 c-26 -6 -49 -11 -50 -11 -1 1 -13 -6 -27 -16 -13 -9 -21
-17 -17 -17 5 0 0 -12 -10 -27 -10 -16 -18 -35 -17 -43 1 -8 2 -21 3 -28 1
-10 6 -10 21 -2 11 6 25 8 30 5 6 -3 10 -1 10 5 0 6 8 14 18 17 23 9 81 52
110 81 46 48 21 60 -71 36z"/>
<path d="M2734 6660 c-12 -5 -25 -13 -29 -19 -3 -6 -11 -9 -16 -6 -5 4 -9 2
-9 -4 0 -5 -9 -13 -21 -16 -43 -14 -75 -54 -85 -107 -6 -27 48 -23 96 7 22 14
43 25 47 25 15 1 46 53 50 85 5 38 -3 46 -33 35z"/>
<path d="M1639 6647 c7 -7 7 -15 0 -24 -7 -7 -9 -13 -5 -13 3 0 -5 -30 -19
-66 -29 -78 -31 -94 -8 -94 25 0 141 61 147 77 7 17 -25 82 -52 104 -22 18
-80 33 -63 16z"/>
<path d="M3286 6645 c-17 -17 -22 -44 -8 -46 4 0 17 -2 30 -5 26 -5 27 3 8 40
-13 25 -15 26 -30 11z"/>
<path d="M3052 6642 c-10 -7 -8 -15 8 -35 12 -15 18 -27 13 -27 -4 0 0 -5 9
-11 12 -7 24 -6 38 1 26 14 25 23 -4 54 -24 27 -42 32 -64 18z"/>
<path d="M747 6607 c-19 -18 -38 -42 -41 -54 -4 -13 -12 -23 -18 -23 -5 0 -8
-7 -4 -15 3 -8 0 -15 -6 -15 -6 0 -9 -3 -6 -6 4 -3 2 -20 -4 -37 -16 -51 -17
-119 -3 -133 10 -10 19 -8 47 11 98 66 139 80 135 44 -2 -24 32 -36 45 -16 14
22 9 45 -9 42 -28 -4 -33 4 -16 25 17 20 22 35 28 85 6 49 -31 99 -83 114 -27
8 -35 6 -65 -22z"/>
<path d="M2791 6569 c-17 -26 -31 -52 -31 -58 0 -6 -4 -11 -9 -11 -10 0 -21
-59 -12 -61 26 -6 51 -5 51 2 0 5 6 9 13 9 18 0 65 44 76 71 9 24 -13 79 -32
79 -4 0 -6 4 -3 8 3 5 -1 9 -9 9 -8 0 -28 -22 -44 -48z"/>
<path d="M1148 6599 c-2 -7 -15 -13 -28 -15 -29 -4 -65 -12 -65 -14 0 -1 -7
-3 -15 -5 -37 -8 -70 -26 -79 -43 -9 -17 -15 -94 -12 -148 1 -13 10 -24 21
-27 22 -6 80 45 130 112 14 18 32 41 41 51 22 24 29 45 19 61 -5 8 -4 19 2 26
7 9 7 13 0 13 -6 0 -12 -5 -14 -11z"/>
<path d="M568 6595 c-1 -1 -22 -5 -45 -8 -51 -5 -72 -21 -70 -50 1 -21 32 -57
49 -57 4 0 8 -5 8 -11 0 -24 73 -74 95 -65 8 3 15 13 15 23 0 10 11 49 24 86
12 37 20 70 16 72 -9 5 -87 14 -92 10z"/>
<path d="M2995 6580 c-3 -5 -3 -10 1 -10 4 0 0 -6 -9 -12 -14 -11 -14 -16 -2
-31 16 -22 43 -19 59 5 8 13 6 22 -8 37 -21 23 -32 26 -41 11z"/>
<path d="M3172 6552 c-47 -31 -52 -46 -19 -64 31 -17 46 -12 84 30 34 37 35
39 18 42 -5 1 -17 6 -26 10 -10 6 -29 0 -57 -18z"/>
<path d="M2917 6482 c-10 -11 -21 -36 -24 -56 -5 -33 -4 -36 20 -36 19 0 27 7
32 28 13 46 13 50 1 67 -11 15 -13 15 -29 -3z"/>
<path d="M3038 6474 c-43 -28 -43 -27 -22 -48 21 -22 56 -20 87 4 l26 21 -21
24 c-26 30 -24 30 -70 -1z"/>
<path d="M387 6433 c-86 -93 -107 -117 -107 -125 0 -5 -4 -7 -8 -4 -4 3 -13
-8 -19 -25 -18 -47 9 -53 78 -19 31 16 59 26 62 23 10 -9 62 16 75 37 6 10 14
36 18 57 6 44 -8 69 -47 78 -21 5 -32 0 -52 -22z"/>
<path d="M520 6349 c-8 -12 -20 -27 -27 -34 -6 -6 -8 -17 -3 -25 6 -10 9 -10
13 1 5 12 6 12 6 0 1 -11 4 -11 16 -1 8 7 15 9 15 5 0 -4 7 -1 17 6 9 8 18 13
20 12 1 -2 10 -3 18 -3 17 0 9 29 -14 47 -24 18 -45 15 -61 -8z"/>
<path d="M6924 7343 c5 -10 -6 -13 -43 -14 -28 -1 -55 -3 -61 -4 -5 -1 -14 -3
-20 -4 -5 0 -10 -8 -10 -17 0 -8 5 -12 10 -9 6 3 10 1 10 -4 0 -6 3 -10 8 -9
4 1 34 -4 67 -12 55 -12 74 -14 121 -11 11 1 15 7 11 21 -3 11 -1 23 4 26 5 3
5 12 0 22 -9 17 -54 23 -68 9 -3 -4 -13 -1 -21 6 -13 9 -14 9 -8 0z"/>
<path d="M7071 7335 c-16 -19 -21 -64 -10 -71 21 -13 109 -10 110 4 6 78 6 77
-45 77 -26 0 -51 -4 -55 -10z"/>
<path d="M7230 7338 c0 -5 -4 -7 -9 -4 -10 7 -8 -26 3 -61 10 -30 58 -41 91
-22 6 4 22 9 38 13 20 5 27 13 29 31 0 14 1 30 2 37 1 8 -23 12 -76 13 -43 1
-78 -3 -78 -7z"/>
<path d="M7428 7318 c-33 -25 -13 -63 42 -78 62 -17 230 -14 248 4 13 13 13
17 -2 31 -9 10 -20 15 -23 12 -3 -4 -15 -1 -27 5 -11 7 -28 13 -36 14 -8 2
-28 5 -45 8 -80 15 -141 17 -157 4z"/>
<path d="M6710 7313 c0 -5 -12 -10 -27 -11 -37 -3 -38 -6 -10 -36 23 -25 25
-25 41 -8 18 21 21 48 6 57 -5 3 -10 2 -10 -2z"/>
<path d="M6565 7281 c-4 -3 -11 -7 -16 -7 -5 -1 -10 -2 -11 -3 -2 -2 -13 -4
-26 -7 -13 -2 -32 -9 -43 -14 -18 -10 -18 -12 8 -38 39 -39 57 -37 97 12 20
24 36 45 36 48 0 9 -38 16 -45 9z"/>
<path d="M6765 7260 c3 -6 2 -10 -3 -10 -14 0 -28 -40 -31 -88 l-3 -43 39 7
c47 8 43 5 50 46 3 18 9 38 14 44 11 13 -4 28 -44 43 -18 7 -26 7 -22 1z"/>
<path d="M7348 7223 c-26 -14 -45 -29 -43 -34 7 -11 95 -39 95 -30 0 15 48 60
56 53 5 -4 2 1 -5 10 -7 10 -17 16 -21 13 -5 -3 -11 -1 -15 5 -9 14 -14 13
-67 -17z"/>
<path d="M6380 7220 c-14 -4 -38 -13 -55 -21 -16 -7 -32 -13 -35 -14 -3 0 -16
-7 -29 -14 l-24 -13 26 -24 c14 -13 31 -24 37 -24 5 0 10 -4 10 -10 0 -5 7
-10 15 -10 8 0 15 -4 15 -9 0 -5 11 -12 26 -15 19 -5 32 0 52 18 15 14 37 33
48 43 l22 18 -42 41 c-34 35 -45 40 -66 34z"/>
<path d="M6612 7205 c-25 -29 -23 -32 35 -73 41 -29 46 -28 41 8 -2 16 0 31 6
33 13 5 -32 57 -49 57 -6 0 -21 -11 -33 -25z"/>
<path d="M6868 7202 c-11 -30 -14 -163 -5 -201 4 -14 12 -28 19 -33 18 -11 40
-10 33 2 -3 6 -3 10 2 10 4 0 24 24 43 53 19 28 40 55 45 59 6 4 6 8 2 8 -4 0
3 12 17 26 l24 26 -20 34 c-17 29 -24 33 -61 32 -23 0 -44 1 -47 2 -29 10 -42
6 -52 -18z"/>
<path d="M7067 7194 c-2 -13 -1 -22 3 -21 5 1 8 -2 9 -6 0 -8 58 -64 99 -99
11 -9 23 -14 26 -11 3 3 8 -2 12 -11 3 -9 12 -16 19 -16 7 0 23 -12 35 -27 12
-16 19 -23 16 -16 -4 7 1 9 16 5 21 -5 22 -4 9 12 -13 16 -13 17 0 14 8 -1 29
12 47 30 39 40 36 67 -8 77 -17 4 -30 11 -30 15 0 5 -6 7 -14 4 -11 -4 -11
-11 1 -45 7 -22 11 -45 8 -50 -4 -5 -1 -9 4 -9 6 0 11 -4 11 -10 0 -5 -9 -6
-22 -1 -19 7 -35 41 -68 147 0 1 -8 10 -18 22 -16 18 -29 21 -84 20 -61 -1
-67 -3 -71 -24z"/>
<path d="M7455 7179 c-11 -4 -16 -8 -12 -8 4 -1 3 -11 -4 -22 -17 -33 6 -65
66 -94 77 -36 88 -32 130 47 20 38 33 73 30 78 -7 12 -181 11 -210 -1z"/>
<path d="M7717 7157 c-24 -30 -22 -82 6 -108 25 -24 78 -50 89 -43 5 3 8 0 8
-5 0 -6 16 -11 35 -11 31 0 35 3 33 23 -2 12 -7 27 -11 34 -4 7 -8 28 -9 48
-1 40 -11 49 -53 54 -16 2 -32 7 -33 12 -2 5 -8 6 -13 3 -6 -3 -15 -1 -22 4
-9 8 -17 4 -30 -11z"/>
<path d="M6533 7142 c-15 -10 -10 -55 10 -86 18 -27 71 -69 100 -79 15 -6 17
-3 12 13 -4 12 -2 20 5 20 7 0 10 6 7 14 -3 7 -1 18 3 22 13 13 1 26 -52 59
-27 17 -48 33 -48 38 0 9 -22 9 -37 -1z"/>
<path d="M6170 7126 c-23 -12 -94 -52 -112 -62 -4 -3 -5 -11 -1 -20 3 -8 8
-12 11 -9 3 3 16 -2 29 -10 13 -9 28 -13 33 -10 5 3 11 1 15 -4 9 -16 35 -1
35 20 0 10 5 19 10 19 6 0 9 3 8 8 -1 4 4 18 11 31 11 19 11 26 -1 37 -11 11
-17 11 -38 0z"/>
<path d="M7910 7093 c0 -45 69 -143 100 -143 5 0 10 -4 10 -10 0 -5 7 -10 15
-10 8 0 24 -4 35 -10 11 -5 29 -15 40 -20 12 -6 25 -8 30 -5 6 4 10 2 10 -3 0
-5 7 -9 15 -9 11 0 13 7 8 26 -3 14 -10 31 -14 37 -5 6 -10 26 -11 45 -3 36
-12 50 -43 66 -30 16 -136 54 -167 59 -25 5 -28 2 -28 -23z"/>
<path d="M7052 7098 c-7 -7 -12 -18 -12 -25 0 -7 -4 -13 -10 -13 -19 0 -10
-28 18 -57 26 -28 69 -53 57 -33 -3 6 -2 10 3 10 9 0 32 43 32 59 0 10 -61 71
-70 71 -3 0 -11 -5 -18 -12z"/>
<path d="M6238 7057 c-8 -18 -14 -43 -12 -57 1 -14 3 -30 3 -36 1 -12 42 -58
73 -83 16 -12 22 -9 49 20 17 18 32 45 34 58 3 29 -14 73 -26 66 -4 -3 -14 2
-22 10 -9 8 -19 15 -22 15 -4 0 -19 9 -34 20 l-28 19 -15 -32z"/>
<path d="M6763 7078 c-13 -6 -23 -15 -23 -20 0 -5 -4 -6 -10 -3 -5 3 -10 -3
-10 -14 0 -12 -4 -21 -8 -21 -5 0 -7 -26 -6 -57 4 -68 7 -83 18 -101 10 -17
57 -7 69 14 5 8 12 12 16 9 15 -9 44 33 36 52 -10 21 -10 21 -19 54 -9 32 -14
59 -15 82 -1 19 -15 21 -48 5z"/>
<path d="M6447 7054 c-10 -14 -20 -41 -21 -59 l-3 -35 41 3 c23 1 47 6 54 10
17 11 15 44 -3 51 -8 3 -15 14 -15 25 0 10 -7 22 -16 25 -20 8 -16 10 -37 -20z"/>
<path d="M7399 7033 c-45 -28 -65 -106 -34 -137 9 -8 16 -19 16 -23 0 -14 42
-63 53 -63 7 0 18 10 26 22 8 12 23 30 33 40 9 10 17 22 17 28 0 5 8 14 18 19
9 6 13 11 9 11 -5 0 1 12 12 26 17 21 19 30 9 41 -6 8 -17 12 -25 9 -7 -3 -13
-1 -13 5 0 6 -4 7 -10 4 -5 -3 -27 3 -48 14 -34 17 -40 18 -63 4z"/>
<path d="M7643 7033 c-7 -3 -13 -9 -13 -15 0 -5 -11 -24 -24 -41 -12 -18 -26
-39 -29 -48 -7 -20 10 -39 34 -39 10 0 19 -4 21 -8 3 -9 93 -52 108 -52 5 0 9
3 9 8 -1 4 -1 9 1 12 1 3 4 23 6 45 3 22 9 41 14 43 5 2 -1 14 -12 27 -12 14
-24 22 -28 20 -4 -2 -22 9 -41 24 -19 15 -40 26 -46 24z"/>
<path d="M5961 6990 l-33 -30 28 -11 c16 -7 38 -13 50 -14 12 -1 28 -4 37 -8
8 -3 17 0 20 6 6 16 -40 87 -56 87 -6 0 -27 -14 -46 -30z"/>
<path d="M8180 7006 c0 -1 5 -18 12 -37 12 -35 22 -50 51 -77 9 -9 17 -21 17
-28 0 -6 11 -16 25 -22 14 -6 25 -16 25 -22 0 -5 5 -10 11 -10 6 0 17 -7 25
-15 9 -8 27 -18 41 -21 21 -6 31 -1 55 27 28 32 28 33 9 41 -11 4 -26 16 -33
28 -7 11 -17 20 -21 20 -11 0 -101 62 -105 73 -2 4 -9 7 -15 7 -7 0 -23 9 -37
20 -21 17 -60 27 -60 16z"/>
<path d="M6932 6966 l-34 -34 18 -38 c23 -49 30 -54 65 -44 15 5 39 7 53 6 33
-4 54 41 34 73 -7 12 -16 21 -20 21 -13 0 -47 38 -40 44 3 3 -6 6 -19 6 -14 0
-38 -15 -57 -34z"/>
<path d="M7199 6978 c-8 -15 -8 -19 0 -14 7 5 11 -1 11 -14 0 -12 4 -29 9 -39
6 -10 12 -28 14 -42 2 -13 9 -37 16 -52 6 -16 9 -32 6 -37 -3 -5 -1 -10 4 -12
6 -1 11 -15 13 -30 2 -15 7 -30 10 -34 4 -3 5 -11 4 -17 -2 -7 -1 -9 1 -4 3 4
12 7 21 7 17 0 75 49 102 85 8 11 11 17 6 13 -10 -8 -76 51 -76 69 0 7 -5 13
-11 13 -5 0 -8 4 -5 9 4 5 2 11 -4 13 -5 1 -10 20 -12 41 -1 26 -7 37 -18 37
-9 0 -21 5 -26 10 -21 21 -54 20 -65 -2z"/>
<path d="M6104 6969 c-3 -5 4 -24 15 -43 11 -18 19 -35 17 -37 -2 -2 2 -9 9
-16 11 -10 16 -8 27 10 22 33 27 52 19 66 -10 16 -79 32 -87 20z"/>
<path d="M6577 6954 c-10 -32 -11 -89 -3 -102 4 -7 22 -12 39 -11 18 1 37 1
42 -1 25 -6 37 1 30 18 -7 17 -13 40 -14 55 -1 4 -18 15 -38 24 -21 8 -41 20
-44 25 -4 6 -9 2 -12 -8z"/>
<path d="M7129 6942 c-21 -51 -18 -105 7 -157 34 -73 80 -125 108 -123 22 2
34 28 13 28 -6 0 -8 3 -5 6 3 3 -7 39 -23 80 -16 42 -27 80 -23 85 3 5 0 9 -5
9 -6 0 -11 9 -11 19 0 11 -4 23 -10 26 -5 3 -10 14 -10 25 0 31 -29 33 -41 2z"/>
<path d="M7803 6947 c-7 -11 -10 -30 -15 -106 -3 -33 -1 -35 45 -47 49 -13 51
-11 50 34 -1 6 2 12 6 12 7 0 5 99 -2 106 -10 10 -78 11 -84 1z"/>
<path d="M5862 6903 c-33 -43 -31 -47 25 -49 45 0 53 3 62 23 9 20 7 25 -19
38 -39 20 -44 19 -68 -12z"/>
<path d="M6442 6914 c-57 -28 -83 -70 -86 -139 -3 -58 4 -62 125 -81 l36 -6
-3 56 c-1 31 2 58 7 61 5 4 9 33 9 65 l0 59 -33 -2 c-18 -1 -43 -7 -55 -13z"/>
<path d="M7939 6923 c-4 -29 -3 -49 3 -53 3 -3 8 -19 10 -35 6 -45 35 -99 72
-133 40 -37 62 -44 100 -34 30 8 31 12 38 90 1 6 4 12 7 12 9 0 34 60 28 66
-3 3 -18 7 -33 9 -16 2 -30 4 -31 6 -2 1 -6 2 -10 4 -5 1 -17 5 -28 9 -11 4
-33 13 -50 19 -16 5 -38 17 -47 25 -10 8 -18 11 -18 7 0 -5 -5 -4 -12 3 -14
14 -27 16 -29 5z"/>
<path d="M6055 6890 c-2 -4 -18 -5 -35 -2 -29 4 -30 3 -19 -20 14 -31 114 -65
123 -42 3 8 2 14 -2 14 -4 0 -13 13 -20 28 -11 26 -37 38 -47 22z"/>
<path d="M6218 6873 c-19 -21 -30 -80 -17 -89 5 -3 7 -9 4 -14 -10 -16 107
-122 120 -108 3 2 1 18 -4 34 -4 16 -7 50 -6 77 1 44 -1 50 -34 74 -20 15 -39
31 -42 35 -3 5 -13 0 -21 -9z"/>
<path d="M7518 6849 c-14 -15 -28 -36 -32 -44 -3 -9 -10 -13 -16 -10 -5 3 -10
2 -10 -4 0 -5 -3 -17 -7 -27 -4 -11 -3 -15 4 -11 14 9 43 -2 43 -15 0 -5 -8
-8 -17 -7 -51 5 -103 -20 -103 -50 0 -6 -5 -11 -10 -11 -11 0 -6 -43 9 -83 9
-23 101 -126 101 -113 0 3 9 -3 19 -13 11 -11 34 -27 51 -36 27 -14 31 -14 36
0 4 8 3 28 0 43 -4 15 -7 35 -7 45 0 9 -5 17 -11 17 -6 0 -9 3 -5 6 3 3 2 17
-4 31 -5 13 -10 45 -10 71 -2 42 -21 91 -34 85 -3 -2 -5 -1 -5 2 0 3 0 10 0
16 0 7 10 5 25 -5 14 -9 30 -14 34 -11 5 3 11 2 13 -3 5 -13 88 -41 104 -35 8
3 14 11 14 19 0 8 5 14 12 14 6 0 9 3 5 6 -3 4 0 19 8 34 14 27 13 27 -34 48
-26 12 -51 22 -55 22 -4 0 -20 8 -34 18 -46 32 -57 32 -84 1z"/>
<path d="M6809 6842 c-24 -14 -47 -30 -51 -36 -8 -12 22 -27 37 -18 5 3 36 5
68 4 56 -2 58 -1 51 21 -4 12 -10 23 -15 25 -4 2 -6 9 -3 16 8 20 -39 14 -87
-12z"/>
<path d="M5768 6799 c-31 -54 -19 -66 25 -25 17 15 24 31 21 40 -9 25 -27 19
-46 -15z"/>
<path d="M7003 6818 c-47 -16 -65 -74 -32 -104 10 -9 19 -21 19 -25 0 -14 93
-110 120 -124 29 -14 48 -10 72 19 21 26 15 50 -23 90 -16 17 -43 59 -59 94
-32 66 -38 69 -97 50z"/>
<path d="M5970 6805 c0 -21 48 -51 62 -37 14 14 4 28 -32 40 -24 9 -30 8 -30
-3z"/>
<path d="M5859 6800 c-3 -20 -4 -25 -12 -37 -5 -8 1 -21 17 -35 65 -61 82 -65
101 -28 18 35 19 50 4 50 -7 0 -19 8 -28 18 -29 34 -80 53 -82 32z"/>
<path d="M6631 6802 c-19 -2 -41 -11 -48 -20 -17 -23 -16 -82 1 -124 18 -43
123 -138 153 -138 7 0 13 -5 13 -11 0 -6 7 -9 15 -5 8 3 15 0 15 -6 0 -7 4 -7
14 1 17 15 16 23 -14 86 -13 28 -23 53 -22 58 1 4 -2 7 -6 7 -5 0 -9 6 -10 13
0 6 -2 36 -4 65 -2 28 -10 58 -16 64 -7 7 -12 9 -12 5 0 -3 -10 -3 -22 1 -13
4 -39 6 -57 4z"/>
<path d="M8216 6773 c-27 -56 -27 -71 -3 -96 47 -50 71 -59 121 -46 30 7 46
17 47 28 1 9 3 26 4 38 2 17 -9 30 -46 53 -26 17 -53 38 -59 46 -21 25 -45 16
-64 -23z"/>
<path d="M8471 6770 c-16 -17 -33 -46 -37 -65 -3 -20 -10 -38 -16 -41 -16 -10
13 -34 41 -34 15 0 32 -5 38 -11 13 -13 105 74 97 93 -4 7 -25 30 -49 51 l-43
38 -31 -31z"/>
<path d="M6080 6775 c-16 -19 -22 -65 -9 -65 6 0 8 -4 5 -9 -3 -5 2 -19 12
-31 14 -18 25 -21 44 -17 28 7 66 56 52 66 -5 3 -14 15 -20 26 -6 11 -22 22
-35 24 -13 1 -27 7 -30 12 -3 6 -12 3 -19 -6z"/>
<path d="M7763 6757 c-6 -12 -16 -34 -23 -49 -16 -34 -8 -54 24 -62 28 -7 61
20 91 76 15 27 15 27 -27 39 -24 6 -46 13 -49 15 -3 2 -11 -7 -16 -19z"/>
<path d="M6820 6750 c-72 -19 -77 -28 -52 -90 13 -32 134 -130 162 -130 5 0
13 -6 17 -14 4 -8 10 -15 13 -16 32 -6 50 -14 50 -22 0 -6 7 -8 15 -5 8 4 17
2 20 -3 10 -15 45 -12 51 5 7 17 -10 46 -52 90 -47 49 -99 118 -115 151 -10
22 -21 30 -39 30 -14 0 -30 2 -35 5 -6 3 -21 2 -35 -1z"/>
<path d="M7904 6735 c-3 -14 -10 -25 -15 -25 -5 0 -9 -5 -9 -10 0 -6 -10 -24
-21 -39 -24 -32 -19 -52 10 -46 11 2 22 -3 25 -11 3 -7 12 -11 21 -8 8 3 23 3
33 -1 35 -15 95 -10 106 8 9 15 6 22 -19 40 -42 30 -95 88 -95 104 0 23 -29
14 -36 -12z"/>
<path d="M5713 6702 c-7 -16 41 -78 64 -84 16 -4 30 6 73 53 3 3 -3 14 -13 24
-23 22 -117 28 -124 7z"/>
<path d="M6005 6687 c-22 -25 2 -114 30 -114 8 0 19 13 26 28 9 23 8 31 -4 44
-9 8 -19 24 -22 35 -7 23 -15 25 -30 7z"/>
<path d="M6382 6663 c-17 -18 -17 -20 25 -56 21 -17 40 -35 43 -38 10 -14 104
-59 122 -59 14 0 18 7 16 30 -1 17 -6 30 -10 30 -4 0 -8 6 -8 13 -1 24 -40 59
-72 64 -18 3 -49 10 -69 17 -28 10 -38 10 -47 -1z"/>
<path d="M6207 6656 c-6 -16 -4 -31 10 -66 13 -32 31 -47 90 -77 66 -33 112
-30 94 6 -5 9 -14 28 -22 44 -7 15 -18 27 -26 27 -7 0 -13 4 -13 8 0 5 -16 14
-35 22 -19 8 -35 18 -35 24 0 5 -3 7 -6 3 -4 -3 -13 0 -21 8 -18 19 -29 19
-36 1z"/>
<path d="M7585 6642 c7 -76 25 -110 86 -161 64 -53 82 -60 104 -37 12 12 12
35 0 96 -2 8 -4 26 -4 40 -1 21 -9 29 -38 40 -21 8 -42 15 -48 16 -5 1 -23 8
-40 15 -54 22 -63 21 -60 -9z"/>
<path d="M8590 6629 c-16 -23 -27 -45 -25 -50 3 -4 1 -10 -5 -14 -6 -4 -7 -12
-3 -18 4 -7 8 -18 9 -24 6 -39 111 -153 141 -153 5 0 19 -9 31 -20 12 -12 22
-18 22 -15 0 3 13 -1 30 -10 16 -8 33 -15 38 -15 16 0 23 32 11 46 -6 8 -9 14
-5 14 8 0 -58 121 -79 146 -5 6 -17 22 -25 34 -8 12 -22 30 -30 40 -8 10 -22
28 -30 40 -31 44 -47 44 -80 -1z"/>
<path d="M5652 6631 c-18 -37 -15 -42 16 -35 33 8 52 25 35 31 -7 3 -13 10
-13 17 0 22 -26 14 -38 -13z"/>
<path d="M5853 6620 c-28 -35 -29 -46 -2 -53 27 -7 49 1 49 19 0 8 4 14 9 14
15 0 22 33 9 42 -23 14 -42 8 -65 -22z"/>
<path d="M7263 6624 c-13 -14 -23 -30 -23 -35 0 -6 -4 -8 -8 -5 -5 3 -9 0 -9
-7 0 -7 -4 -19 -7 -28 -8 -19 13 -39 78 -73 63 -33 86 -34 86 -2 0 14 -5 28
-10 31 -6 4 -8 10 -5 15 3 4 -2 21 -10 36 -8 16 -15 37 -15 47 0 22 -23 47
-42 47 -7 0 -23 -12 -35 -26z"/>
<path d="M8141 6623 c-28 -11 -63 -59 -65 -88 -2 -48 17 -96 47 -120 19 -14
38 -25 44 -25 5 0 29 -14 53 -31 42 -30 109 -52 96 -30 -4 5 -2 12 4 16 6 4 8
10 5 15 -4 7 -15 62 -20 100 -1 8 -11 37 -23 64 -12 27 -22 50 -22 53 0 2 -12
15 -27 28 -27 23 -62 30 -92 18z"/>
<path d="M6115 6588 c-20 -24 -25 -39 -21 -60 6 -29 40 -71 50 -60 3 3 6 0 6
-6 0 -12 68 -34 81 -27 4 3 6 12 5 21 -4 27 -70 152 -83 158 -7 3 -24 -9 -38
-26z"/>
<path d="M8352 6592 c-41 -4 -48 -21 -28 -61 9 -17 16 -33 16 -36 0 -3 0 -6 1
-7 4 -15 10 -46 11 -58 2 -28 23 -40 45 -25 36 26 136 125 125 125 -6 0 -9 8
-7 19 2 14 -6 21 -33 29 -45 14 -87 18 -130 14z"/>
<path d="M5934 6565 c-15 -23 -15 -26 1 -41 13 -13 21 -15 41 -6 29 14 30 22
5 50 -23 28 -27 27 -47 -3z"/>
<path d="M7821 6581 c-9 -6 -11 -18 -8 -32 6 -21 16 -36 67 -96 5 -7 10 -14
10 -17 0 -10 66 -74 89 -85 17 -10 26 -10 35 -1 12 12 16 160 4 160 -5 0 -8 6
-8 14 0 13 -46 37 -79 42 -21 3 -56 12 -56 14 0 7 -43 7 -54 1z"/>
<path d="M5730 6570 c0 -5 -7 -10 -16 -12 -12 -2 -5 -14 25 -45 44 -44 58 -46
92 -12 16 16 16 18 1 31 -42 33 -102 56 -102 38z"/>
<path d="M5870 6484 c-14 -7 -21 -13 -16 -14 5 0 3 -6 -3 -14 -10 -12 -8 -17
11 -27 13 -8 26 -13 30 -14 3 0 10 -3 13 -7 9 -8 65 19 65 31 0 10 -28 35 -55
49 -15 7 -27 7 -45 -4z"/>
<path d="M6032 6492 c-15 -5 -16 -56 -2 -83 6 -10 20 -19 32 -19 19 0 20 4 14
41 -7 44 -24 68 -44 61z"/>
<path d="M8517 6454 c-15 -8 -28 -18 -28 -22 -13 -72 11 -128 60 -142 20 -5
41 -10 46 -10 6 0 32 -11 60 -24 60 -29 83 -21 60 23 -21 40 -155 190 -155
174 0 -5 -4 -3 -8 4 -5 8 -14 7 -35 -3z"/>
<path d="M8076 6393 c-8 -20 10 -42 32 -38 9 2 19 4 22 4 3 1 6 10 6 20 0 11
-3 19 -6 19 -3 0 -7 1 -10 2 -22 8 -40 6 -44 -7z"/>
<path d="M8387 6352 c-23 -25 -21 -42 3 -42 11 0 20 -3 20 -7 0 -5 18 -9 40
-10 45 -3 47 5 10 48 -28 33 -50 37 -73 11z"/>
<path d="M3326 1715 c-8 -8 -19 -15 -24 -15 -6 0 -12 -7 -16 -15 -3 -10 5 -20
25 -31 28 -14 33 -14 55 1 14 9 22 20 19 25 -4 6 -1 10 6 10 7 0 3 9 -9 20
-25 24 -36 25 -56 5z"/>
<path d="M3404 1655 c-4 -8 -10 -12 -16 -9 -5 3 -8 -2 -6 -12 3 -22 51 -46 73
-38 20 8 19 44 -2 60 -24 18 -42 17 -49 -1z"/>
<path d="M3194 1601 c-34 -34 -48 -54 -44 -66 3 -9 9 -16 13 -16 12 1 42 -12
48 -21 6 -9 34 15 68 61 14 17 30 30 37 27 10 -4 11 0 2 19 -8 18 -57 48 -72
45 -1 0 -24 -22 -52 -49z"/>
<path d="M3490 1595 c-26 -14 -28 -25 -5 -38 21 -12 44 2 40 25 -6 28 -6 28
-35 13z"/>
<path d="M3340 1591 c0 -4 -12 -21 -27 -38 -47 -50 -69 -77 -55 -69 6 4 12 2
12 -3 0 -6 8 -11 18 -11 10 0 22 -3 26 -7 4 -4 18 -9 31 -10 21 -3 29 5 54 54
34 68 31 74 -41 88 -10 2 -18 0 -18 -4z"/>
<path d="M3544 1552 c-9 -13 -4 -20 23 -39 19 -13 37 -23 40 -23 3 0 21 -11
40 -26 35 -27 53 -25 48 4 -2 9 -4 21 -4 26 -1 5 -4 6 -8 3 -6 -7 -84 34 -113
59 -13 11 -17 10 -26 -4z"/>
<path d="M3444 1536 c-3 -9 -11 -13 -17 -9 -6 3 -7 1 -3 -5 3 -6 -2 -26 -13
-45 l-19 -35 23 -10 c35 -16 56 -9 69 24 17 42 14 64 -11 81 -20 14 -23 14
-29 -1z"/>
<path d="M3069 1472 c-29 -30 -33 -40 -23 -50 7 -7 16 -12 20 -12 3 0 17 -9
32 -20 l25 -20 21 27 c12 14 29 35 39 45 13 14 15 23 8 36 -6 9 -11 13 -11 7
0 -5 -4 -4 -8 2 -4 7 -21 15 -37 18 -25 5 -36 -1 -66 -33z"/>
<path d="M3515 1474 c-9 -15 -11 -23 -4 -19 9 6 10 4 3 -6 -5 -8 -9 -17 -10
-21 -1 -5 -2 -9 -3 -10 -2 -2 -4 -14 -6 -28 -2 -14 -6 -37 -8 -52 -5 -22 -1
-27 21 -34 15 -4 30 -7 35 -6 4 1 7 -3 7 -9 0 -5 4 -8 9 -5 5 3 19 -3 32 -13
23 -18 23 -18 37 8 7 14 22 50 32 79 l19 53 -47 29 c-26 16 -56 36 -67 45 -26
20 -30 19 -50 -11z"/>
<path d="M3191 1411 l-41 -49 77 -38 c43 -22 81 -43 84 -48 14 -19 38 3 33 29
-3 15 -1 24 3 22 4 -3 8 14 7 36 -2 65 -3 67 -27 67 -13 0 -27 4 -32 9 -6 4
-22 11 -37 15 -23 5 -32 -1 -67 -43z"/>
<path d="M3719 1444 c-9 -11 -8 -14 5 -14 9 0 16 -4 16 -8 0 -14 66 -30 81
-21 11 7 9 13 -11 28 -13 11 -28 17 -32 15 -4 -3 -8 -1 -8 3 0 15 -38 12 -51
-3z"/>
<path d="M3385 1398 c-2 -13 -6 -41 -8 -63 -3 -38 -2 -40 25 -40 15 0 28 4 28
8 0 5 3 6 8 4 4 -3 13 1 20 9 7 8 9 14 3 14 -5 0 -5 13 2 30 10 25 9 33 -3 40
-8 5 -18 7 -22 4 -4 -3 -17 0 -28 6 -16 9 -20 7 -25 -12z"/>
<path d="M2994 1381 c-16 -19 -34 -39 -41 -46 -10 -10 -8 -16 6 -29 10 -9 23
-16 29 -16 7 0 12 -4 12 -8 0 -4 12 -9 28 -10 21 -1 32 6 50 34 25 38 23 64
-3 64 -8 0 -15 5 -15 10 0 6 -6 10 -14 10 -8 0 -16 5 -18 12 -3 7 -17 -2 -34
-21z"/>
<path d="M3694 1383 c-17 -52 -49 -130 -58 -142 -8 -11 -8 -13 2 -7 7 4 12 2
12 -7 0 -14 47 -42 64 -38 4 1 14 -3 21 -9 8 -7 17 -4 31 11 10 12 18 23 17
25 -2 2 -3 5 -2 7 0 1 2 12 5 24 2 12 10 39 17 60 15 46 12 74 -9 66 -8 -3
-21 0 -28 6 -26 21 -66 23 -72 4z"/>
<path d="M3105 1303 c-18 -26 -17 -27 11 -49 l28 -23 19 29 c23 37 15 70 -18
70 -14 0 -30 -10 -40 -27z"/>
<path d="M2910 1275 c0 -8 -4 -15 -9 -15 -14 0 -22 -30 -13 -47 5 -8 11 -14
13 -12 8 4 55 -14 72 -29 9 -8 17 -10 17 -4 0 6 6 17 14 24 7 8 17 24 20 36 6
18 3 22 -13 22 -12 0 -21 5 -21 11 0 5 -4 8 -9 4 -5 -3 -12 -1 -16 5 -4 6 -11
8 -16 5 -5 -4 -9 -1 -9 4 0 6 -7 11 -15 11 -8 0 -15 -7 -15 -15z"/>
<path d="M3197 1284 c-3 -3 -3 -12 0 -20 3 -8 0 -14 -6 -14 -6 0 -8 -7 -4 -17
4 -11 3 -14 -5 -9 -8 5 -12 -1 -12 -15 0 -12 -8 -31 -17 -42 -10 -11 -13 -17
-6 -14 7 5 9 1 6 -12 -4 -15 3 -20 32 -25 48 -9 106 -37 99 -48 -3 -4 2 -5 10
-2 9 3 17 14 17 23 3 39 9 89 15 122 6 35 5 36 -46 57 -55 23 -72 26 -83 16z"/>
<path d="M3398 1283 c9 -7 6 -13 -13 -23 -14 -7 -25 -17 -25 -22 0 -5 -5 -6
-11 -2 -8 5 -8 1 0 -13 6 -11 8 -23 5 -25 -5 -5 -10 -29 -16 -78 -2 -20 2 -25
20 -26 12 -1 22 2 22 7 0 4 9 6 20 4 11 -2 22 1 25 6 4 5 9 7 13 5 4 -2 7 29
6 70 -1 45 3 74 9 74 13 0 0 13 -16 16 -7 1 -21 5 -32 9 -13 5 -16 4 -7 -2z"/>
<path d="M3479 1285 c-3 -6 -5 -23 -5 -40 1 -16 -5 -36 -11 -43 -9 -9 -10 -19
-3 -31 5 -10 7 -21 4 -24 -3 -3 -3 -14 0 -25 5 -14 14 -19 32 -17 13 1 27 -2
30 -6 3 -5 15 -9 26 -9 12 0 19 3 15 6 -3 3 3 26 13 50 11 24 17 44 13 44 -3
0 0 7 8 16 10 13 8 19 -13 39 -14 13 -28 21 -32 18 -3 -3 -12 0 -21 7 -8 7
-21 10 -29 7 -8 -3 -16 -1 -19 6 -2 6 -5 7 -8 2z"/>
<path d="M3043 1205 c-11 -17 -23 -40 -27 -53 -4 -12 -12 -22 -17 -22 -5 0 -9
-9 -9 -20 0 -11 -4 -20 -10 -20 -5 0 -7 -7 -4 -15 3 -8 9 -14 12 -13 13 2 62
-14 62 -21 0 -4 9 -7 20 -8 15 -1 21 7 26 33 3 19 11 34 18 34 6 0 4 5 -4 10
-13 8 -13 10 2 10 11 0 15 5 12 15 -4 8 1 26 10 40 15 22 15 25 -4 38 -11 8
-18 16 -15 18 2 3 -9 5 -24 4 -20 0 -34 -9 -48 -30z"/>
<path d="M3621 1178 c-11 -28 -23 -63 -21 -63 1 0 -8 -24 -19 -52 -20 -51 -18
-59 13 -54 4 1 15 -4 24 -11 9 -7 13 -8 9 -2 -7 12 21 12 41 0 6 -4 20 -2 29
3 10 6 14 11 10 11 -4 0 -2 10 5 23 7 12 13 24 13 27 0 3 6 20 14 37 14 34 9
69 -9 58 -5 -3 -10 -1 -10 5 0 6 -5 8 -10 5 -6 -4 -26 3 -45 15 l-35 21 -9
-23z"/>
<path d="M2835 1164 c-14 -15 -25 -33 -25 -40 0 -8 -4 -14 -10 -14 -18 0 -10
-15 14 -26 22 -10 27 -8 51 29 41 64 18 103 -30 51z"/>
<path d="M2912 1145 c-7 -8 -10 -15 -7 -15 4 0 -3 -13 -15 -30 -12 -16 -16
-30 -10 -30 6 0 9 -4 6 -8 -2 -4 7 -9 20 -10 16 -1 27 5 31 16 4 9 10 19 13
22 12 9 21 60 11 60 -5 0 -15 2 -23 5 -7 2 -19 -2 -26 -10z"/>
<path d="M3152 1098 c-7 -7 -12 -8 -12 -2 -1 5 -7 -6 -15 -25 -8 -18 -12 -37
-9 -42 3 -5 1 -9 -4 -9 -5 0 -9 -7 -10 -15 -1 -8 -3 -22 -4 -30 -1 -8 -4 -15
-8 -15 -11 0 -5 -39 8 -52 8 -8 12 -8 12 -1 0 17 81 4 131 -22 l47 -23 -2 34
c-1 19 2 34 5 34 4 0 5 9 2 21 -5 19 -4 20 15 8 13 -8 18 -17 13 -24 -5 -5 -8
-21 -7 -35 1 -14 0 -29 -2 -34 -3 -5 -5 -34 -5 -65 0 -31 -5 -59 -11 -63 -8
-6 -8 -8 0 -8 12 0 12 -69 0 -88 -3 -6 -1 -12 5 -14 9 -3 9 -10 2 -23 -6 -11
-7 -29 -2 -40 7 -19 8 -19 8 3 1 12 5 22 9 22 4 0 9 14 10 32 2 17 6 36 10 42
5 6 7 21 6 34 0 12 2 22 7 22 4 0 6 9 4 20 -2 11 0 22 6 25 5 4 9 16 9 29 0
12 3 26 8 30 4 4 7 11 7 15 0 11 39 91 45 91 3 0 5 28 4 63 -1 34 3 71 9 81 8
16 6 18 -8 13 -9 -4 -27 -7 -40 -7 -12 0 -33 -8 -45 -18 -21 -17 -27 -34 -29
-86 -1 -15 -4 -16 -16 -6 -11 9 -12 17 -5 31 8 14 5 23 -15 43 -14 14 -26 25
-28 25 -12 -3 -56 15 -51 22 3 5 -2 6 -11 2 -10 -3 -20 -1 -24 5 -5 9 -10 9
-19 0z"/>
<path d="M3484 1082 c-24 -3 -36 -32 -23 -53 4 -7 4 -18 -1 -24 -12 -14 2 -35
20 -31 27 4 60 31 60 48 0 10 5 18 11 18 6 0 4 7 -5 15 -8 8 -19 15 -24 15 -6
0 -12 3 -14 8 -1 4 -13 6 -24 4z"/>
<path d="M2764 1052 c-4 -9 -6 -20 -6 -24 1 -5 -2 -8 -6 -8 -17 0 -10 -38 9
-43 10 -3 19 -1 19 5 0 5 3 7 8 5 4 -3 14 10 23 29 16 33 16 33 -12 43 -22 8
-29 6 -35 -7z"/>
<path d="M2936 996 c-13 -28 -29 -68 -35 -88 -7 -21 -17 -40 -22 -44 -13 -8 8
-34 27 -34 8 0 14 -5 14 -10 0 -6 7 -10 16 -8 11 2 18 -5 20 -20 3 -17 1 -21
-8 -15 -7 4 -19 8 -25 9 -7 1 -20 10 -29 19 -16 16 -18 16 -28 -2 -6 -10 -12
-29 -14 -42 -2 -14 -7 -32 -11 -40 -5 -9 -7 -24 -5 -34 2 -13 -2 -17 -13 -13
-12 5 -13 4 -5 -7 7 -8 10 -16 8 -18 -2 -2 -7 -21 -10 -41 -8 -52 27 -77 104
-73 77 5 80 6 70 25 -5 9 -5 22 0 30 4 7 7 22 5 32 -2 10 -1 18 3 18 4 0 8 12
8 28 3 52 8 82 15 82 4 0 5 9 2 19 -4 16 -9 18 -28 11 -17 -7 -25 -5 -29 6 -6
15 -1 18 47 28 15 4 25 11 22 16 -3 6 -3 16 2 23 4 6 9 19 11 27 1 8 5 24 7
35 19 88 18 91 -17 106 -18 8 -36 13 -40 11 -5 -1 -8 2 -8 6 0 5 -7 9 -15 9
-9 0 -26 -22 -39 -51z"/>
<path d="M2853 1033 c-7 -2 -13 -10 -13 -17 0 -7 -9 -22 -20 -34 -12 -12 -18
-22 -14 -22 3 0 1 -7 -6 -15 -7 -8 -11 -15 -9 -16 2 0 13 -3 24 -6 41 -10 70
-8 67 5 -1 7 5 26 13 42 17 32 20 64 6 55 -5 -3 -12 -1 -16 5 -7 11 -13 11
-32 3z"/>
<path d="M3570 983 c0 -7 -6 -13 -13 -13 -22 0 -81 -32 -95 -51 -7 -10 -18
-24 -25 -31 -8 -7 -15 -17 -16 -23 -2 -5 -8 -21 -13 -35 -5 -14 -10 -33 -11
-42 -1 -10 -4 -18 -7 -18 -15 0 -19 -215 -5 -229 12 -12 65 33 110 94 16 22
32 42 35 45 10 9 40 60 39 66 0 4 4 10 9 13 9 6 89 153 104 192 6 16 0 18 -62
22 -19 1 -38 7 -42 12 -5 6 -8 5 -8 -2z"/>
<path d="M2724 952 c-13 -9 -54 -89 -54 -106 0 -7 6 -19 14 -25 12 -10 18 -3
37 34 12 25 27 45 32 45 6 0 7 3 4 6 -3 4 -2 16 4 27 8 14 8 18 0 13 -6 -4
-11 -2 -11 3 0 13 -10 14 -26 3z"/>
<path d="M2769 889 c-1 -8 -1 -18 0 -22 1 -4 -6 -10 -14 -13 -8 -4 -15 -15
-15 -26 0 -10 -4 -17 -8 -14 -5 3 -9 0 -9 -7 0 -7 -4 -23 -7 -37 -6 -23 -4
-25 26 -24 18 1 43 -3 56 -7 15 -6 21 -5 17 1 -3 6 -2 10 4 10 5 0 8 9 6 20
-2 11 0 20 6 20 5 0 8 3 7 8 -1 4 2 24 7 45 4 21 6 40 4 42 -2 2 -21 6 -41 10
-29 5 -38 4 -39 -6z"/>
<path d="M3074 869 c-8 -9 -16 -31 -16 -48 -1 -17 -4 -31 -7 -31 -3 0 -7 -15
-8 -32 -1 -18 -5 -52 -9 -75 -5 -33 -3 -43 7 -44 52 -2 95 -12 101 -22 4 -7 8
-8 8 -3 0 5 6 3 13 -3 8 -6 16 -9 18 -6 3 2 24 -13 47 -34 31 -28 42 -34 43
-22 1 9 2 41 3 71 1 30 5 60 9 67 4 6 3 14 -1 17 -7 4 -9 61 -2 61 1 0 3 11 4
24 2 15 -6 34 -19 47 -13 13 -21 24 -19 26 1 2 -9 5 -23 6 -15 1 -29 6 -32 10
-11 16 -100 9 -117 -9z"/>
<path d="M2647 778 c-2 -7 -5 -16 -6 -21 0 -4 -8 -23 -16 -43 -18 -45 -18 -45
0 -38 8 4 15 12 15 19 0 7 3 15 8 17 11 5 41 66 34 72 -10 10 -30 6 -35 -6z"/>
<path d="M2703 719 c-24 -9 -40 -45 -47 -109 -2 -14 -6 -39 -10 -57 -7 -30 -6
-32 21 -29 15 1 42 -1 60 -5 40 -8 55 7 58 59 1 20 4 39 5 42 1 3 2 8 2 11 -1
4 3 20 7 37 8 27 6 31 -17 40 -49 18 -57 19 -79 11z"/>
<path d="M3019 612 c0 -4 -3 -25 -6 -47 -3 -22 -6 -57 -7 -77 0 -21 -3 -38 -6
-38 -6 0 -5 -85 1 -110 4 -17 19 -30 34 -30 15 0 59 36 119 97 74 76 76 79 76
111 0 44 -47 78 -122 88 -24 3 -53 7 -65 9 -13 2 -23 1 -24 -3z"/>
<path d="M3314 528 c-60 -66 -119 -181 -91 -175 34 7 143 142 142 177 0 24
-29 23 -51 -2z"/>
<path d="M2810 524 c0 -8 -4 -13 -9 -9 -6 3 -8 -4 -5 -17 3 -13 7 -44 9 -69 1
-25 7 -55 13 -66 6 -11 8 -23 5 -27 -3 -3 0 -6 7 -6 7 0 11 -3 7 -6 -3 -3 4
-17 16 -30 21 -24 67 -33 67 -13 0 5 4 8 8 5 5 -3 9 0 10 7 1 13 9 49 13 57 1
3 3 10 4 15 2 6 4 12 5 15 1 3 4 19 5 35 2 17 4 30 5 30 1 0 3 7 5 15 1 8 4
22 6 30 3 11 -5 15 -33 15 -21 0 -38 -3 -38 -8 0 -7 -6 -5 -67 26 -29 14 -33
14 -33 1z"/>
<path d="M2653 492 c-16 -2 -23 -11 -25 -35 -4 -41 10 -138 22 -152 6 -7 7
-15 3 -18 -3 -4 5 -7 19 -7 21 0 29 8 42 39 8 22 17 51 20 65 3 14 7 30 11 36
9 15 14 70 7 71 -29 3 -81 4 -99 1z"/>
<path d="M5597 1712 c-22 -25 -21 -34 6 -52 28 -19 47 -19 70 0 24 20 22 25
-17 49 -40 25 -39 25 -59 3z"/>
<path d="M5534 1672 c4 -7 3 -12 -3 -12 -6 0 -15 -10 -22 -21 -9 -17 -8 -25 4
-36 13 -13 19 -14 46 -2 35 16 39 29 14 51 -27 23 -47 33 -39 20z"/>
<path d="M5700 1643 c-8 -3 -23 -12 -32 -20 -13 -12 -15 -19 -5 -33 6 -10 15
-16 19 -14 4 3 8 -1 8 -9 0 -8 16 -29 36 -46 31 -27 37 -30 50 -17 8 8 23 18
34 21 11 3 20 10 20 15 0 10 -99 110 -109 109 -3 0 -13 -3 -21 -6z"/>
<path d="M5452 1578 c4 -25 34 -33 43 -10 6 16 -10 32 -33 32 -8 0 -12 -9 -10
-22z"/>
<path d="M5597 1588 c-9 -5 -17 -6 -17 -3 0 4 -8 -1 -17 -10 -13 -14 -14 -21
-5 -36 19 -30 30 -53 36 -73 5 -14 12 -17 34 -11 15 4 34 9 42 10 8 2 17 4 20
5 3 1 9 2 13 1 5 -1 6 3 2 9 -3 5 -2 10 4 10 6 0 -8 19 -29 42 -22 23 -40 45
-40 49 0 12 -26 17 -43 7z"/>
<path d="M5395 1550 c-4 -6 -25 -20 -48 -31 -23 -12 -45 -26 -48 -31 -3 -5
-10 -10 -15 -10 -5 1 -7 -7 -6 -16 5 -23 12 -28 20 -16 7 11 66 45 77 44 3 0
14 9 25 20 12 12 25 18 29 15 5 -3 7 4 4 15 -6 21 -28 27 -38 10z"/>
<path d="M5484 1526 c-16 -12 -17 -18 -7 -35 10 -15 10 -21 0 -24 -9 -4 -9 -6
1 -6 6 -1 12 -8 12 -16 0 -8 3 -16 8 -16 33 -6 52 -5 52 2 0 5 7 9 15 9 13 0
12 5 -3 38 -29 63 -44 73 -78 48z"/>
<path d="M5830 1505 c-7 -8 -18 -15 -25 -15 -7 0 -18 -6 -24 -13 -8 -10 -6
-18 7 -33 10 -11 26 -31 36 -46 l17 -26 45 25 c24 14 44 31 44 38 0 11 -73 85
-84 85 -2 0 -9 -7 -16 -15z"/>
<path d="M5387 1470 c-26 -16 -47 -27 -47 -24 0 3 -11 -7 -25 -22 -14 -15 -22
-30 -18 -33 9 -7 34 -69 36 -91 1 -8 7 -21 14 -28 10 -10 17 -10 35 2 13 8 42
19 66 26 40 10 42 12 37 43 -3 18 -10 46 -14 64 -5 17 -6 34 -3 37 3 3 0 6 -6
6 -7 0 -12 11 -12 25 0 32 -6 31 -63 -5z"/>
<path d="M5241 1463 c-1 -7 -8 -10 -16 -7 -8 4 -15 1 -15 -5 0 -6 -3 -10 -7
-9 -12 2 -47 -14 -55 -26 -11 -16 24 -25 52 -13 48 21 58 31 49 52 -4 11 -8
15 -8 8z"/>
<path d="M5711 1451 c-8 -5 -20 -7 -28 -4 -7 3 -13 0 -13 -6 0 -6 -8 -11 -19
-11 -18 0 -45 -23 -36 -31 2 -3 7 -32 11 -64 7 -69 8 -72 28 -56 8 7 21 9 27
5 8 -5 9 -3 4 6 -6 10 -3 12 14 7 13 -3 20 -3 17 1 -4 3 13 15 36 26 73 36 72
33 27 87 -43 52 -46 54 -68 40z"/>
<path d="M5249 1399 c-14 -13 -22 -16 -62 -24 -33 -7 -35 -15 -15 -77 19 -60
25 -84 27 -100 4 -35 125 3 128 40 1 12 -3 22 -8 22 -6 0 -8 3 -6 8 3 4 -7 38
-22 76 -24 58 -30 66 -42 55z"/>
<path d="M5534 1402 c-21 -3 -42 -52 -22 -52 5 0 7 -4 4 -8 -7 -12 6 -26 34
-38 36 -16 45 -9 43 33 -1 21 -2 46 -2 55 -1 16 -8 17 -57 10z"/>
<path d="M5935 1397 c-10 -7 -25 -18 -33 -24 -7 -7 -18 -13 -23 -13 -5 0 -9
-7 -9 -15 0 -8 5 -15 12 -15 6 0 9 -3 5 -6 -3 -3 6 -18 19 -34 23 -25 28 -27
55 -17 16 6 29 15 29 19 0 4 6 8 14 8 21 0 29 17 16 32 -62 75 -65 77 -85 65z"/>
<path d="M5795 1314 c-14 -11 -16 -18 -7 -21 6 -3 12 -12 12 -22 0 -34 20 -40
58 -18 19 11 30 23 24 25 -7 2 -12 8 -12 14 0 14 -26 38 -42 38 -7 0 -22 -8
-33 -16z"/>
<path d="M5444 1271 c-23 -9 -48 -22 -56 -28 -8 -7 -18 -10 -21 -6 -11 10 -8
0 18 -73 14 -38 25 -70 25 -71 0 -1 9 -1 20 0 11 1 20 5 20 9 0 5 9 4 19 -1
15 -8 21 -7 27 7 10 21 12 142 2 142 -4 0 -8 9 -10 19 -3 18 -5 18 -44 2z"/>
<path d="M5527 1284 c-3 -3 -3 -25 0 -47 3 -23 6 -59 7 -79 2 -43 4 -45 36
-51 14 -3 33 -8 43 -12 15 -6 22 2 19 26 -1 4 -3 24 -6 45 -2 22 -5 40 -7 42
-2 3 -6 19 -8 32 -1 12 -77 51 -84 44z"/>
<path d="M5712 1275 c-12 -9 -27 -13 -32 -10 -6 3 -10 2 -10 -3 0 -5 -10 -12
-22 -16 -15 -4 -19 -9 -12 -13 6 -5 11 -15 12 -23 1 -29 11 -80 16 -89 4 -5 1
-11 -6 -13 -9 -3 -8 -9 4 -21 16 -16 19 -16 53 3 19 11 37 20 40 20 3 0 7 1
10 1 3 1 10 3 15 4 6 1 17 3 26 4 13 1 15 7 10 29 -9 40 -23 77 -46 122 -10
21 -31 23 -58 5z"/>
<path d="M5993 1266 c-24 -11 -43 -28 -43 -36 0 -18 49 -80 50 -62 0 6 5 12
11 12 6 0 17 7 26 16 9 8 21 13 27 11 6 -3 16 1 23 8 8 9 5 20 -14 43 -28 37
-25 36 -80 8z"/>
<path d="M5896 1241 c-4 -6 -11 -9 -16 -6 -5 3 -18 -3 -29 -14 -11 -11 -22
-16 -26 -13 -4 4 1 -11 10 -33 10 -22 22 -49 26 -60 8 -17 16 -53 18 -78 1 -5
6 -5 11 -2 6 4 18 1 26 -6 12 -10 15 -10 12 2 -2 8 3 13 10 12 6 -2 11 3 10
10 -2 7 6 11 20 9 18 -3 22 2 22 22 0 14 -4 26 -10 26 -5 0 -10 7 -10 16 0 8
-7 22 -15 31 -8 8 -13 19 -10 24 4 5 2 9 -3 9 -5 0 -16 14 -25 31 -9 19 -17
27 -21 20z"/>
<path d="M5330 1192 c0 -10 -61 -33 -71 -26 -5 3 -9 0 -9 -6 0 -7 -7 -9 -16
-6 -19 7 -16 -12 17 -99 23 -62 33 -72 54 -55 12 10 15 10 15 -1 0 -9 3 -10 8
-4 4 6 22 11 40 12 39 1 50 9 35 24 -6 6 -9 18 -6 25 3 8 0 14 -7 14 -7 0 -10
7 -6 15 3 8 1 15 -5 15 -6 0 -8 4 -5 8 5 9 -30 92 -39 92 -3 0 -5 -4 -5 -8z"/>
<path d="M6092 1181 c-11 -7 -10 -16 7 -48 11 -22 18 -43 16 -47 -3 -3 -2 -4
2 -1 3 3 12 0 20 -6 9 -9 13 -8 13 0 0 6 7 11 15 11 8 0 15 5 15 10 0 6 -4 10
-10 10 -5 0 -9 3 -8 8 3 12 -36 72 -47 72 -5 0 -16 -4 -23 -9z"/>
<path d="M6012 1135 c-6 -14 -8 -25 -4 -25 4 0 13 -13 19 -30 12 -32 29 -38
56 -17 14 11 14 16 -10 55 -29 48 -45 53 -61 17z"/>
<path d="M5783 1090 c-23 -10 -44 -16 -47 -13 -3 4 -6 0 -6 -7 0 -7 -3 -11 -6
-7 -3 3 -15 -3 -27 -13 -11 -11 -25 -17 -30 -13 -6 4 -7 1 -2 -7 4 -7 9 -24
11 -39 1 -14 5 -36 8 -49 3 -16 1 -20 -7 -16 -8 5 -8 3 1 -7 6 -7 12 -21 12
-31 0 -10 7 -18 15 -18 8 0 15 5 15 11 0 5 5 7 10 4 6 -3 10 -1 10 6 0 7 3 9
7 6 3 -4 12 -2 19 3 6 6 37 11 68 11 57 1 65 10 42 48 -7 10 -5 12 3 6 9 -5
10 -2 2 11 -19 37 -40 102 -34 108 4 3 -1 6 -11 6 -9 0 -14 5 -11 10 8 12 9
13 -42 -10z"/>
<path d="M5559 1082 c-14 -2 -17 -16 -16 -75 0 -59 5 -82 29 -129 16 -32 30
-67 31 -78 1 -11 4 -20 7 -20 3 0 6 -12 5 -27 0 -16 4 -31 9 -35 5 -3 9 -20 8
-37 0 -17 4 -33 9 -37 5 -3 7 -9 4 -14 -3 -5 1 -22 10 -37 14 -24 15 -25 12
-5 -3 12 -1 22 4 22 4 0 6 6 4 13 -3 6 -7 62 -9 122 -4 92 -14 240 -20 280 -4
29 -57 64 -87 57z"/>
<path d="M5450 1071 c-14 -5 -24 -14 -22 -22 2 -8 4 -22 5 -33 1 -11 13 -23
29 -28 16 -6 28 -14 28 -19 0 -4 6 -6 14 -3 9 3 12 17 9 40 -2 21 0 33 6 30 5
-3 4 5 -2 19 -12 26 -24 28 -67 16z"/>
<path d="M6180 1062 c0 -7 -4 -11 -9 -7 -5 3 -12 1 -16 -5 -7 -11 25 -70 38
-70 4 0 5 -5 2 -11 -4 -6 2 -5 14 3 12 7 21 20 21 30 0 20 -49 79 -50 60z"/>
<path d="M5947 1024 c-42 -22 -48 -29 -42 -47 4 -12 7 -31 6 -42 0 -10 5 -25
11 -33 6 -7 12 -26 13 -40 2 -37 12 -52 36 -52 13 0 18 -4 13 -12 -6 -10 -4
-10 7 0 7 6 23 12 34 12 29 0 62 30 62 55 0 11 -9 35 -19 53 -10 18 -18 41
-18 51 0 10 -7 24 -15 31 -9 7 -13 15 -10 18 6 6 -14 32 -24 32 -3 -1 -28 -12
-54 -26z"/>
<path d="M6085 1030 c-4 -6 -11 -8 -16 -5 -5 4 -9 -3 -9 -14 0 -12 5 -21 10
-21 6 0 9 -3 8 -7 -2 -5 3 -23 11 -41 12 -29 17 -33 40 -26 14 3 32 7 39 7 6
0 12 2 12 3 0 9 -43 85 -51 90 -5 3 -7 10 -4 15 4 5 -3 9 -14 9 -11 0 -23 -5
-26 -10z"/>
<path d="M5360 981 c0 -4 -14 -7 -31 -7 -16 -1 -32 -4 -34 -6 -7 -7 18 -78 27
-78 4 0 8 -9 8 -19 0 -11 3 -21 8 -23 4 -1 20 -28 36 -58 31 -57 76 -123 89
-128 4 -2 7 -8 7 -13 0 -17 95 -119 111 -119 5 0 9 9 9 20 0 26 1 31 10 56 5
11 4 27 0 34 -5 8 -5 19 1 26 6 7 6 15 1 18 -5 3 -9 22 -10 42 -1 20 -6 42
-12 49 -5 6 -7 15 -4 18 3 3 2 12 -2 19 -5 7 -9 15 -10 18 -3 17 -29 60 -36
60 -5 0 -6 5 -3 10 3 6 2 10 -2 10 -5 0 -21 12 -36 26 -17 15 -45 28 -67 31
-22 3 -38 9 -35 13 2 3 -2 7 -10 7 -8 0 -15 -3 -15 -6z"/>
<path d="M6215 951 c-5 -8 15 -69 28 -86 42 -57 43 -57 54 -43 10 11 7 25 -12
65 -13 28 -21 54 -17 57 3 3 1 6 -4 7 -5 0 -17 2 -26 4 -10 2 -20 0 -23 -4z"/>
<path d="M6188 904 c-4 -3 -12 -7 -20 -8 -7 -1 -23 -6 -35 -10 -23 -7 -22 -13
4 -76 3 -8 8 -24 10 -35 2 -11 8 -22 13 -23 6 -2 8 -7 6 -10 -2 -4 9 -7 24 -7
15 0 26 4 22 9 -3 5 2 7 11 3 10 -4 17 -1 17 6 0 8 3 8 9 -2 7 -11 9 -11 14 0
4 14 -41 111 -56 117 -4 2 -5 8 -1 13 3 5 0 9 -6 9 -6 0 -8 5 -5 10 7 11 2 14
-7 4z"/>
<path d="M5789 879 c-7 -4 -17 -5 -21 -3 -4 3 -8 1 -8 -4 0 -9 -46 -27 -61
-24 -7 1 -1 -300 6 -307 3 -2 15 7 28 21 13 14 34 29 45 33 12 3 22 11 22 17
0 6 3 8 7 5 3 -4 12 -2 19 4 7 6 34 12 61 14 l48 3 -1 38 c-2 65 -11 131 -18
143 -4 7 -5 19 -2 27 3 9 1 12 -4 9 -6 -3 -10 2 -10 12 0 15 -9 18 -49 19 -28
0 -55 -3 -62 -7z"/>
<path d="M6066 798 c3 -4 2 -9 -3 -10 -21 -4 -70 -8 -90 -8 -18 0 -22 -5 -21
-25 1 -14 5 -25 8 -25 4 0 7 -12 7 -27 1 -16 5 -48 8 -73 4 -25 8 -52 8 -60 1
-25 30 -39 77 -36 76 5 117 33 99 68 -5 9 -9 30 -9 46 0 16 -3 32 -7 36 -4 3
-8 14 -9 24 -12 84 -21 102 -49 100 -13 -1 -21 -6 -19 -10z"/>
<path d="M6296 768 c10 -35 50 -99 57 -92 3 3 2 16 -3 29 -5 13 -6 26 -3 29 4
3 1 6 -5 6 -7 0 -11 3 -11 8 5 27 -3 42 -22 42 -16 0 -19 -4 -13 -22z"/>
<path d="M6229 719 c-7 -4 -19 -6 -28 -4 -9 1 -22 -3 -29 -11 -7 -8 -9 -14 -5
-14 4 0 9 -12 10 -27 10 -120 15 -143 37 -144 11 -1 26 0 31 1 6 1 27 2 48 3
l39 1 -7 35 c-3 20 -8 47 -10 61 -4 25 -7 37 -20 77 -7 22 -45 35 -66 22z"/>
<path d="M5833 613 c3 -5 -14 -19 -38 -31 -25 -12 -45 -25 -46 -29 0 -5 -2
-19 -4 -33 -2 -23 49 -109 66 -110 4 0 30 -22 58 -50 63 -61 86 -64 100 -12 6
20 8 52 6 71 -2 18 -5 52 -6 75 -1 22 -7 47 -13 55 -9 12 -8 13 4 6 13 -8 13
-7 1 8 -7 9 -10 17 -7 17 4 0 3 8 -2 17 -10 16 -42 28 -42 15 0 -10 -54 -7
-70 3 -8 5 -11 4 -7 -2z"/>
<path d="M5617 510 c8 -19 17 -41 20 -47 3 -7 9 -13 14 -13 5 0 9 -5 9 -10 0
-12 80 -90 93 -90 18 0 -7 56 -57 130 -41 61 -50 69 -74 67 -20 -1 -20 -3 -5
-37z"/>
<path d="M6122 519 c-14 -12 -72 -28 -72 -19 0 5 -12 8 -27 7 -24 -2 -28 -7
-28 -32 0 -17 4 -36 9 -43 5 -7 6 -15 4 -18 -6 -6 13 -74 33 -116 8 -19 20
-28 36 -28 12 0 23 5 23 11 0 5 5 7 10 4 6 -3 10 1 10 9 0 9 4 16 8 16 15 0
36 83 38 152 1 60 0 66 -17 65 -11 -1 -23 -4 -27 -8z"/>
<path d="M6215 479 c-3 -10 -2 -26 4 -36 12 -23 41 -121 41 -138 0 -13 21 -25
45 -25 27 0 54 172 31 201 -7 9 -32 14 -63 15 -42 0 -54 -3 -58 -17z"/>
</g>
</svg>
